<svg width="1441" height="798" viewBox="0 0 1441 798" fill="none" xmlns="http://www.w3.org/2000/svg">
<mask id="mask0_11_187" style="mask-type:luminance" maskUnits="userSpaceOnUse" x="0" y="0" width="1441" height="1048">
<path d="M1441 0H0V1047.38H1441V0Z" fill="white"/>
</mask>
<g mask="url(#mask0_11_187)">
<path d="M1441 0H0V1047.38H1441V0Z" fill="#1D1C1F"/>
</g>
<mask id="mask1_11_187" style="mask-type:luminance" maskUnits="userSpaceOnUse" x="0" y="0" width="1441" height="1048">
<path d="M1441 0H0V1047.38H1441V0Z" fill="white"/>
</mask>
<g mask="url(#mask1_11_187)">
<path d="M-259.38 1347.06C-251.094 1157.35 -154.067 978.641 -6.24436 878.224C68.6876 827.295 155.508 797.576 243.529 791.03C343.678 783.567 424.735 821.666 520.681 841.042C595.373 856.098 672.947 859.764 746.678 836.984C822.931 813.549 891.619 762.227 939.292 693.231C1018.79 578.151 1005.7 432.828 1057.45 305.048C1104.29 189.575 1203.23 100.81 1316.23 73.0544C1429.23 45.299 1553.52 79.0769 1641.3 161.558" stroke="#29282B" stroke-miterlimit="10"/>
<path d="M-272.229 1347.32C-264.544 1159.44 -169.197 981.914 -23.4163 881.628C51.876 829.39 139.537 799.016 228.519 792.601C254.937 790.637 280.154 791.946 304.651 795.088C373.579 804.253 436.983 829.39 508.313 844.446C522.362 847.457 536.532 849.945 550.702 852.039C612.785 861.073 676.069 860.418 736.591 841.566C769.854 831.223 801.556 815.512 830.737 794.957C868.803 768.249 902.186 733.686 929.325 694.017C933.288 688.256 937.01 682.365 940.613 676.473C999.694 578.02 1006.9 466.605 1042.56 365.665C1048.09 350.085 1054.21 334.636 1061.3 319.58C1090.48 257.916 1135.87 205.416 1190.87 167.187C1231.45 138.908 1277.57 118.484 1326.08 107.749C1359.1 100.548 1393.21 97.9295 1426.95 99.3696C1509.93 103.166 1591.34 131.184 1650.55 181.719" stroke="#29282B" stroke-miterlimit="10"/>
<path d="M-284.958 1347.58C-277.753 1161.54 -183.848 985.842 -40.4681 885.032C35.3045 831.878 123.686 800.457 213.628 794.041C240.287 792.209 265.744 793.387 290.602 796.791C360.25 806.217 424.374 832.009 496.064 847.719C510.234 850.862 524.524 853.611 538.814 855.837C601.497 865.525 665.622 865.263 726.504 846.017C760.007 835.544 791.95 819.309 821.13 797.969C859.196 770.345 892.099 734.865 919.358 694.672C923.321 688.78 927.163 682.889 930.766 676.866C990.808 577.104 1004.62 470.403 1044.6 376.401C1050.85 361.868 1057.57 347.598 1065.26 333.72C1096.72 276.9 1143.31 229.375 1199.15 195.074C1240.46 169.675 1287.05 151.477 1336.05 142.05C1369.43 135.635 1403.89 133.279 1438 134.326C1521.82 137.075 1603.95 159.07 1660.03 201.62" stroke="#29282B" stroke-miterlimit="10"/>
<path d="M-297.807 1347.84C-291.202 1163.63 -198.858 989.377 -57.64 888.436C18.4929 834.103 107.835 801.897 198.738 795.481C225.637 793.648 251.455 794.958 276.552 798.362C346.921 808.05 411.766 834.496 483.936 850.992C498.226 854.265 512.636 857.146 527.046 859.502C590.45 869.976 655.295 869.976 716.657 850.469C750.401 839.733 782.463 823.237 811.883 801.111C849.95 772.701 882.492 736.174 909.751 695.326C913.714 689.435 917.557 683.412 921.159 677.39C982.162 576.318 1002.34 474.199 1046.89 387.398C1053.73 374.044 1061.06 360.952 1069.34 348.121C1103.09 296.014 1150.88 253.596 1207.68 223.222C1249.59 200.703 1296.66 184.862 1346.13 176.614C1379.88 170.984 1414.58 168.889 1449.17 169.544C1533.82 171.246 1616.56 187.349 1669.64 221.782" stroke="#29282B" stroke-miterlimit="10"/>
<path d="M-310.656 1347.97C-304.651 1165.6 -213.868 992.781 -74.8119 891.709C1.68118 836.198 91.8638 803.075 183.728 796.922C210.866 795.089 236.924 796.398 262.262 799.933C333.351 809.883 398.917 836.984 471.447 854.134C485.857 857.538 500.387 860.681 515.037 863.168C579.042 874.296 644.607 874.689 706.57 854.789C740.554 843.923 772.856 826.903 802.277 804.122C840.343 774.796 872.405 737.352 899.784 695.981C903.747 689.958 907.59 683.936 911.312 677.783C973.275 575.402 999.934 477.996 1048.93 398.265C1056.49 385.958 1064.42 374.044 1073.18 362.392C1109.21 315.129 1158.2 277.685 1215.84 251.239C1258.35 231.601 1306.03 218.116 1355.98 211.046C1390.2 206.202 1425.15 204.369 1460.09 204.631C1545.59 205.286 1629.05 215.367 1679.01 241.682" stroke="#29282B" stroke-miterlimit="10"/>
<path d="M-323.384 1348.23C-317.861 1167.69 -228.759 996.315 -91.8637 895.113C-15.0104 838.423 76.0127 804.515 168.837 798.361C196.096 796.529 222.514 797.838 248.212 801.504C320.022 811.715 386.308 839.471 459.319 857.407C473.849 860.942 488.499 864.215 503.269 866.964C567.874 878.878 634.28 879.533 696.603 859.371C730.827 848.243 763.25 830.961 792.79 807.264C830.857 777.152 862.438 738.661 889.938 696.766C893.9 690.613 897.863 684.59 901.586 678.306C964.509 574.616 997.652 481.792 1051.09 409.262C1059.38 398.133 1067.9 387.267 1077.27 376.793C1115.57 334.374 1165.77 301.906 1224.25 279.387C1267.36 262.76 1315.63 251.501 1366.07 245.609C1400.65 241.551 1435.96 239.98 1471.26 239.849C1557.6 239.456 1641.66 243.514 1688.49 261.844" stroke="#29282B" stroke-miterlimit="10"/>
<path d="M-336.233 1348.5C-331.31 1169.79 -243.769 999.719 -109.036 898.517C-31.822 840.649 60.1618 805.955 153.827 799.933C181.326 798.1 207.984 799.54 233.922 803.337C306.453 813.81 373.459 842.22 446.83 860.942C461.48 864.739 476.251 868.012 491.141 870.892C556.466 883.461 623.593 884.508 686.396 863.953C720.86 852.694 753.523 834.889 783.063 810.537C821.01 779.509 852.232 740.101 879.971 697.552C884.054 691.398 887.896 685.114 891.619 678.961C955.503 573.961 995.011 485.851 1053.01 420.259C1061.9 410.178 1071.14 400.49 1080.99 391.325C1121.58 353.62 1172.97 326.257 1232.3 307.666C1276.13 293.92 1324.88 285.017 1375.79 280.304C1410.74 277.031 1446.4 275.721 1481.95 275.067C1569.13 273.496 1653.91 271.663 1697.62 282.006" stroke="#29282B" stroke-miterlimit="10"/>
<path d="M-349.082 1348.76C-344.639 1171.88 -258.9 1003.25 -126.208 901.921C-48.6338 842.744 44.1906 807.395 138.816 801.373C166.556 799.671 193.454 800.98 219.752 804.908C293.003 815.643 360.61 844.708 434.461 864.085C449.232 868.012 464.122 871.547 479.132 874.558C545.058 887.781 613.025 889.221 676.309 868.274C711.013 856.753 743.796 838.555 773.577 813.549C811.523 781.604 842.264 741.28 870.124 698.206C874.207 691.922 878.049 685.638 881.892 679.354C946.737 573.176 992.609 489.648 1055.17 431.126C1064.78 422.223 1074.51 413.582 1084.95 405.596C1127.82 372.735 1180.42 350.347 1240.7 335.684C1285.13 324.817 1334.37 318.271 1385.88 314.736C1421.19 312.38 1457.21 311.201 1493.12 310.154C1581.14 307.536 1666.64 299.811 1707.22 302.037" stroke="#29282B" stroke-miterlimit="10"/>
<path d="M-361.811 1348.89C-357.968 1173.71 -273.79 1006.53 -143.259 905.325C-65.4454 844.97 28.4597 808.704 124.046 802.813C152.025 801.111 179.164 802.551 205.823 806.479C279.794 817.476 348.122 847.196 422.453 867.358C437.343 871.416 452.354 875.082 467.484 878.224C534.011 892.233 602.698 893.935 666.462 872.725C701.407 861.073 734.43 842.482 764.21 816.56C802.037 783.829 832.418 742.327 860.397 698.73C864.48 692.446 868.443 686.031 872.285 679.746C938.091 572.26 990.327 493.314 1057.57 441.992C1067.78 434.137 1078.23 426.674 1089.28 419.867C1134.43 391.718 1188.22 374.437 1249.35 363.701C1294.38 355.715 1344.21 351.525 1396.21 349.169C1431.87 347.598 1468.26 346.681 1504.52 345.241C1593.39 341.575 1679.49 327.828 1717.07 322.068" stroke="#29282B" stroke-miterlimit="10"/>
<path d="M-374.66 1349.15C-371.298 1175.94 -288.921 1009.93 -160.311 908.729C-82.137 847.065 12.6087 810.145 109.156 804.384C137.375 802.682 164.754 804.122 191.653 808.181C266.345 819.44 335.393 849.814 410.084 870.63C425.095 874.82 440.225 878.748 455.476 882.021C522.723 896.684 592.131 898.91 656.375 877.177C691.56 865.263 724.703 846.279 754.604 819.702C792.43 786.055 822.33 743.636 850.43 699.516C854.513 693.1 858.476 686.685 862.438 680.27C929.205 571.474 987.685 497.11 1059.62 452.99C1070.54 446.313 1081.59 439.897 1093.12 434.268C1140.55 410.964 1195.55 398.657 1257.51 391.849C1303.14 386.743 1353.58 384.91 1406.06 383.732C1442.08 382.946 1478.83 382.292 1515.45 380.459C1605.15 375.746 1691.97 355.977 1726.32 342.23" stroke="#29282B" stroke-miterlimit="10"/>
<path d="M-387.389 1349.41C-384.627 1177.9 -303.811 1013.34 -177.483 912.133C-98.9487 849.29 -3.36233 811.585 94.1453 805.824C122.485 804.122 150.344 805.693 177.483 809.752C252.895 821.273 322.664 852.301 397.836 873.904C412.966 878.355 428.217 882.282 443.588 885.817C511.435 901.135 581.684 903.754 646.408 881.628C681.833 869.583 715.216 850.207 745.237 822.844C783.063 788.412 812.604 744.945 840.703 700.301C844.786 693.755 848.749 687.34 852.712 680.925C920.439 570.819 985.284 501.169 1061.78 464.118C1073.3 458.488 1085.07 453.252 1097.2 448.8C1146.92 430.34 1203.11 423.009 1265.92 420.259C1312.15 418.164 1363.19 418.557 1416.14 418.557C1452.53 418.557 1489.63 418.164 1526.62 415.939C1617.16 410.178 1704.58 384.518 1735.92 362.654" stroke="#29282B" stroke-miterlimit="10"/>
<path d="M-400.238 1349.67C-398.076 1180 -318.941 1016.61 -194.655 915.537C-115.76 851.385 -19.2133 813.025 79.1349 807.264C107.715 805.562 135.814 807.133 163.193 811.454C239.326 823.237 309.815 854.92 385.347 877.177C400.598 881.759 415.969 885.948 431.459 889.483C500.027 905.587 570.876 908.467 636.081 886.079C671.746 873.903 705.249 854.003 735.39 825.855C773.217 790.506 802.277 746.124 830.496 700.825C834.579 694.279 838.662 687.733 842.625 681.186C911.312 569.772 982.522 504.704 1063.58 474.723C1075.83 470.271 1088.08 466.213 1100.8 462.809C1152.8 449.062 1210.2 446.836 1273.96 448.015C1320.92 448.8 1372.43 451.55 1425.87 452.597C1462.62 453.382 1500.08 453.382 1537.43 450.502C1628.81 443.694 1716.95 412.011 1745.17 382.161" stroke="#29282B" stroke-miterlimit="10"/>
<path d="M-413.087 1349.94C-411.406 1182.09 -334.072 1020.01 -211.827 918.94C-132.692 853.479 -35.1845 814.334 64.2445 808.835C93.0645 807.264 121.404 808.835 149.143 813.156C225.877 825.2 297.206 857.407 373.219 880.58C388.59 885.294 404.08 889.614 419.691 893.411C488.859 910.169 560.549 913.442 626.234 890.661C662.139 878.224 695.883 858.062 726.024 829.128C763.85 792.994 792.43 747.564 820.769 701.741C824.852 695.064 828.935 688.518 833.018 681.841C902.666 569.117 980.12 508.631 1065.86 485.851C1078.71 482.447 1091.68 479.567 1104.89 477.341C1159.16 468.438 1217.76 471.188 1282.37 476.294C1329.92 479.959 1381.92 485.065 1435.84 487.291C1472.94 488.862 1510.77 489.124 1548.47 485.851C1640.7 477.996 1729.56 440.29 1754.66 402.454" stroke="#29282B" stroke-miterlimit="10"/>
<path d="M-425.815 1350.07C-424.735 1184.06 -349.082 1023.15 -228.759 922.214C-149.264 855.575 -50.9153 815.643 49.4743 810.145C78.5345 808.574 107.114 810.145 135.214 814.596C212.668 826.903 284.718 859.764 361.09 883.723C376.581 888.567 392.192 893.018 407.923 896.946C477.691 914.359 550.222 918.024 616.388 894.851C652.533 882.283 686.396 861.597 716.777 832.009C754.483 794.958 782.703 748.611 811.163 702.134C815.246 695.457 819.328 688.78 823.531 682.103C894.14 568.07 977.958 512.036 1068.26 496.587C1081.83 494.23 1095.4 492.528 1109.21 491.481C1165.77 487.291 1225.57 495.147 1291.02 504.18C1339.17 510.726 1391.77 518.189 1446.16 521.593C1483.63 523.949 1521.82 524.473 1559.88 520.807C1652.95 511.905 1742.41 468.177 1764.38 422.223" stroke="#29282B" stroke-miterlimit="10"/>
<path d="M-438.664 1350.33C-438.064 1186.15 -364.213 1026.43 -245.931 925.618C-166.195 857.669 -66.7663 817.083 34.4639 811.585C63.7643 810.014 92.5843 811.585 120.924 816.167C199.098 828.735 271.869 862.251 348.722 886.865C364.333 891.84 380.064 896.553 395.915 900.612C466.404 918.81 539.654 922.737 606.181 899.302C642.566 886.472 676.67 865.525 707.051 835.02C744.877 797.314 772.496 749.79 801.076 702.789C805.159 695.981 809.362 689.173 813.445 682.496C885.014 567.154 975.077 515.701 1070.06 507.453C1084.35 506.275 1098.52 505.62 1112.81 505.751C1171.65 506.406 1232.66 519.236 1298.94 532.197C1347.7 541.624 1400.89 551.443 1455.77 556.025C1493.6 559.298 1532.14 559.953 1570.57 555.894C1664.6 545.944 1754.66 496.325 1773.51 442.254" stroke="#29282B" stroke-miterlimit="10"/>
<path d="M-451.393 1350.59C-451.393 1188.25 -379.343 1029.7 -262.982 929.022C-183.007 859.633 -82.6173 818.524 19.5736 813.156C48.994 811.585 78.1743 813.287 106.874 818C185.769 830.83 259.26 865.001 336.474 890.4C352.205 895.637 368.056 900.35 384.027 904.67C455.116 923.523 529.087 927.843 596.214 904.016C632.839 891.054 667.183 869.714 697.564 838.424C735.39 799.802 762.529 751.23 791.229 703.836C795.432 697.028 799.515 690.089 803.718 683.412C876.248 566.761 972.675 519.76 1072.22 518.713C1087.11 518.582 1101.88 519.105 1116.78 520.415C1177.9 525.782 1240.1 543.719 1307.23 560.608C1356.7 572.914 1410.38 585.09 1465.74 590.851C1503.92 594.909 1542.83 595.826 1581.5 591.243C1676.36 580.246 1767.03 524.604 1782.88 462.547" stroke="#29282B" stroke-miterlimit="10"/>
<path d="M-464.242 1350.85C-464.843 1190.34 -394.474 1032.97 -280.154 932.425C-199.939 861.728 -98.4684 819.964 4.68322 814.596C34.3438 813.025 63.7642 814.727 92.7043 819.571C172.32 832.663 246.411 867.488 324.225 893.542C340.076 898.91 356.047 903.885 372.138 908.205C443.828 927.712 518.64 932.426 586.247 908.336C623.112 895.113 657.696 873.38 688.197 841.435C726.024 802.027 752.802 752.408 781.502 704.36C785.705 697.421 789.788 690.482 794.111 683.674C867.602 565.713 970.393 523.164 1074.51 529.448C1090.12 530.364 1105.49 532.066 1120.98 534.554C1184.38 544.766 1247.79 567.677 1315.87 588.494C1365.95 603.812 1420.23 618.213 1476.06 625.152C1514.61 629.996 1553.88 631.174 1592.91 626.199C1688.61 614.154 1780 552.49 1792.72 482.447" stroke="#29282B" stroke-miterlimit="10"/>
<path d="M-477.091 1350.98C-478.172 1192.31 -409.724 1036.12 -297.326 935.698C-216.75 863.691 -114.439 821.142 -10.3272 816.036C19.5736 814.596 49.3543 816.298 78.5345 821.142C158.87 834.496 233.682 869.976 311.856 896.815C327.827 902.313 343.919 907.419 360.13 912.002C432.54 932.295 508.073 937.27 576.04 912.787C613.145 899.433 647.85 877.307 678.471 844.446C716.177 804.122 742.595 753.586 771.415 705.014C775.618 697.944 779.821 691.006 784.144 684.067C858.476 564.797 967.752 526.829 1076.43 540.314C1092.64 542.278 1108.73 545.159 1124.7 548.824C1190.27 563.88 1254.99 591.767 1323.92 616.511C1374.59 634.709 1429.35 651.467 1485.79 659.584C1524.7 665.214 1564.33 666.654 1603.71 661.286C1700.26 648.194 1792.36 580.507 1801.85 502.478" stroke="#29282B" stroke-miterlimit="10"/>
<path d="M-489.82 1351.24C-491.501 1194.4 -424.735 1039.39 -314.378 939.103C-233.562 865.786 -130.29 822.582 -25.2175 817.476C4.92339 816.036 34.9442 817.738 64.4847 822.713C145.541 836.329 221.073 872.463 299.608 900.088C315.699 905.718 331.91 911.085 348.242 915.668C421.252 936.615 497.505 941.983 566.073 917.108C603.419 903.492 638.363 880.973 668.984 847.457C706.69 806.348 732.628 754.765 761.568 705.669C765.771 698.599 769.974 691.529 774.297 684.59C849.589 564.011 965.23 530.495 1078.47 551.312C1095.4 554.454 1112.09 558.382 1128.54 563.226C1196.39 582.995 1262.32 615.987 1332.08 644.659C1383.36 665.738 1438.72 684.852 1495.64 694.148C1534.9 700.563 1574.89 702.265 1614.64 696.504C1712.03 682.365 1804.73 608.787 1811.22 522.64" stroke="#29282B" stroke-miterlimit="10"/>
<path d="M-502.669 1351.51C-504.83 1196.5 -439.985 1042.66 -331.55 942.507C-250.614 867.75 -146.141 824.023 -40.228 818.917C-9.96701 817.476 20.4141 819.309 50.1947 824.284C131.971 838.162 208.224 874.951 287.239 903.23C303.45 908.991 319.782 914.489 336.233 919.334C409.844 941.067 486.938 946.696 555.986 921.559C593.572 907.812 628.636 884.901 659.377 850.6C697.084 808.574 722.541 756.074 751.602 706.324C755.804 699.123 760.127 692.053 764.45 684.983C840.703 563.095 962.828 533.9 1080.51 562.179C1098.16 566.368 1115.33 571.605 1132.51 577.497C1202.63 602.11 1269.76 640.077 1340.37 672.677C1392.25 696.636 1448.2 718.107 1505.6 728.58C1545.23 735.781 1585.58 737.745 1625.69 731.592C1723.92 716.405 1817.34 636.804 1820.7 542.671" stroke="#29282B" stroke-miterlimit="10"/>
<path d="M-515.398 1351.77C-518.16 1198.59 -455.236 1045.67 -348.602 945.91C-267.546 869.583 -161.992 825.462 -55.1183 820.487C-24.6171 819.047 6.00416 820.88 36.1451 826.117C118.642 840.257 195.616 877.7 274.991 906.765C291.322 912.787 307.774 918.286 324.345 923.392C398.677 945.78 476.491 951.933 545.899 926.272C583.725 912.394 619.03 888.959 649.891 853.872C687.597 811.061 712.574 757.514 741.755 707.24C745.958 700.039 750.281 692.838 754.724 685.769C831.937 562.571 960.426 537.958 1082.67 573.307C1100.92 578.544 1118.82 584.959 1136.47 592.029C1208.88 621.355 1277.21 664.428 1348.78 700.956C1401.37 727.795 1457.81 751.622 1515.57 763.274C1555.56 771.261 1596.27 773.486 1636.74 766.809C1735.8 750.444 1829.83 664.952 1830.07 562.833" stroke="#29282B" stroke-miterlimit="10"/>
<path d="M-528.247 1351.9C-531.489 1200.55 -470.367 1048.95 -365.774 949.314C-261.181 849.683 -115.16 803.86 21.9751 827.688C122.365 845.1 214.589 896.945 312.457 927.057C428.217 962.668 552.623 958.741 640.404 856.883C683.514 806.871 709.452 742.719 744.997 686.161C823.171 561.785 958.025 541.623 1084.83 584.173C1181.5 616.642 1267.12 678.699 1357.06 729.104C1447 779.508 1547.87 819.44 1647.78 802.027C1747.69 784.614 1842.44 693.231 1839.56 582.864" stroke="#29282B" stroke-miterlimit="10"/>
<path d="M-502.669 1351.77C-501.588 1203.83 -437.584 1058.9 -332.991 961.752C-320.983 950.623 -308.494 940.15 -295.525 930.331C-195.616 854.527 -70.2487 818.392 47.9133 834.103C103.032 841.304 155.508 858.978 207.864 877.438C248.212 891.709 288.56 906.372 329.869 917.107C442.027 946.565 562.47 938.055 648.81 837.245C691.32 787.495 717.738 724.39 753.643 669.011C831.697 547.646 964.63 526.96 1089.64 568.332C1113.41 576.187 1136.47 585.875 1159.16 596.742C1227.49 629.734 1291.62 673.855 1358.26 711.429C1373.51 720.07 1389 728.318 1404.86 736.042C1481.11 773.224 1563.49 797.576 1645.14 783.567C1743.73 766.678 1837.4 678.175 1837.28 570.557" stroke="#29282B" stroke-miterlimit="10"/>
<path d="M-477.211 1351.51C-471.807 1207.1 -404.921 1068.85 -300.328 974.059C-288.32 963.192 -275.831 952.981 -262.983 943.292C-163.674 868.667 -41.1886 830.176 73.7311 840.257C127.288 844.97 178.324 859.371 228.999 874.689C268.146 886.472 307.173 898.648 347.161 907.027C455.596 930.2 572.197 917.37 657.096 817.476C699.005 767.988 726.024 706.193 762.169 651.729C840.343 533.769 971.114 512.167 1094.44 552.36C1117.86 559.953 1140.67 569.51 1163.13 580.246C1230.61 612.714 1293.66 656.573 1359.34 693.886C1374.35 702.396 1389.72 710.644 1405.34 718.238C1480.51 755.158 1561.8 778.724 1642.5 765.239C1739.89 748.873 1832.35 663.25 1834.99 558.382" stroke="#29282B" stroke-miterlimit="10"/>
<path d="M-451.633 1351.24C-441.907 1210.37 -372.138 1078.67 -267.546 986.496C-255.537 975.891 -243.169 965.941 -230.32 956.384C-131.491 883.068 -12.0083 841.958 99.6692 846.541C151.785 848.635 201.14 859.895 250.254 872.07C288.2 881.366 325.906 890.923 364.573 897.076C469.526 913.704 582.044 896.815 665.622 797.707C707.051 748.48 734.55 687.863 770.815 634.447C848.869 519.629 977.718 497.503 1099.24 536.387C1122.42 543.718 1144.99 553.014 1167.09 563.618C1233.74 595.563 1295.82 639.16 1360.54 676.211C1375.31 684.721 1390.44 692.838 1405.82 700.432C1479.91 736.959 1560.24 759.87 1639.86 746.778C1735.92 730.937 1827.31 648.194 1832.71 546.075" stroke="#29282B" stroke-miterlimit="10"/>
<path d="M-426.056 1350.98C-411.886 1213.65 -339.355 1088.62 -234.643 998.803C-222.634 988.46 -210.266 978.641 -197.537 969.345C-99.3089 897.338 17.292 853.61 125.727 852.694C176.282 852.17 224.196 860.287 271.508 869.321C308.134 876.129 344.639 883.068 382.105 886.865C483.336 897.207 592.011 875.867 674.148 777.807C714.976 728.842 742.956 669.403 779.581 617.035C857.515 505.489 984.563 482.578 1104.29 520.283C1127.22 527.484 1149.44 536.518 1171.29 546.86C1237.1 578.282 1298.1 621.617 1361.87 658.406C1376.4 666.785 1391.29 674.902 1406.54 682.365C1479.55 718.499 1558.8 740.887 1637.46 728.187C1732.32 712.869 1822.63 633.007 1830.67 533.637" stroke="#29282B" stroke-miterlimit="10"/>
<path d="M-400.598 1350.85C-382.105 1216.92 -306.693 1098.57 -201.98 1011.24C-189.972 1001.29 -177.603 991.602 -164.995 982.438C-67.3668 911.609 46.3521 865.393 151.425 858.978C200.419 855.967 246.771 860.811 292.523 866.572C327.947 870.892 363.132 875.344 399.277 876.784C496.905 880.842 601.738 855.182 682.313 758.038C722.541 709.335 751.121 651.074 787.987 599.753C865.921 491.35 990.928 467.915 1108.85 504.18C1131.43 511.119 1153.4 519.891 1175.02 530.103C1239.98 560.869 1300.02 604.073 1362.71 640.47C1377.12 648.849 1391.77 656.835 1406.66 664.297C1478.59 700.039 1556.88 721.772 1634.33 709.596C1727.88 694.802 1817.1 617.82 1827.91 521.2" stroke="#29282B" stroke-miterlimit="10"/>
<path d="M-375.02 1350.59C-352.204 1220.19 -273.91 1108.52 -169.197 1023.68C-157.189 1013.99 -144.821 1004.56 -132.332 995.53C-35.1844 926.01 75.5324 877.307 177.363 865.394C224.916 859.764 269.707 861.597 313.778 864.084C347.881 866.048 381.865 867.75 416.689 866.965C510.714 864.608 611.584 834.627 690.719 738.399C730.347 689.958 759.407 632.876 796.633 582.602C874.447 477.472 997.532 453.251 1113.65 488.338C1135.99 495.015 1157.72 503.656 1178.98 513.606C1243.1 543.849 1302.06 586.792 1363.79 622.926C1377.96 631.174 1392.37 639.16 1407.02 646.492C1477.87 681.841 1555.08 703.05 1631.57 691.267C1723.8 676.997 1811.94 602.895 1825.51 508.893" stroke="#29282B" stroke-miterlimit="10"/>
<path d="M-349.443 1350.33C-322.184 1223.46 -241.127 1118.33 -136.415 1035.98C-124.406 1026.56 -112.158 1017.39 -99.5491 1008.62C-3.00205 940.412 104.713 889.09 203.301 871.678C249.293 863.43 292.643 862.12 335.033 861.466C367.935 860.942 400.598 860.157 434.101 856.884C524.524 848.243 621.431 813.941 699.125 718.63C738.152 670.451 767.693 614.547 805.159 565.321C882.853 463.332 1004.02 438.457 1118.46 472.366C1140.43 478.912 1161.93 487.16 1182.94 497.11C1246.22 526.83 1304.11 569.51 1364.99 605.383C1378.92 613.631 1393.09 621.486 1407.62 628.687C1477.39 663.643 1553.64 684.198 1629.05 672.807C1720.07 659.061 1807.01 587.839 1823.35 496.587" stroke="#29282B" stroke-miterlimit="10"/>
<path d="M-323.985 1350.07C-292.403 1226.61 -208.465 1128.28 -103.752 1048.42C-91.7437 1039.26 -79.4952 1030.36 -67.0065 1021.71C29.0601 954.682 133.893 900.874 229.239 877.962C273.67 867.227 315.459 862.644 356.287 858.848C387.989 855.967 419.331 852.432 451.513 846.934C538.213 832.009 631.278 793.387 707.651 698.992C746.198 651.206 776.219 596.349 813.925 548.301C891.499 449.455 1010.86 424.056 1123.38 456.656C1145.11 462.94 1166.25 471.057 1187.02 480.745C1249.47 509.941 1306.39 552.36 1366.19 587.97C1379.88 596.087 1393.93 603.943 1408.1 611.143C1476.78 645.838 1551.96 665.607 1626.41 654.74C1716.11 641.517 1801.97 573.176 1821.18 484.673" stroke="#29282B" stroke-miterlimit="10"/>
<path d="M-298.407 1349.94C-262.502 1230.01 -175.682 1138.23 -70.9693 1060.86C-58.961 1051.96 -46.7125 1043.32 -34.3439 1034.81C61.1223 969.084 163.073 912.656 255.057 884.246C298.047 870.892 338.275 863.168 377.422 856.229C407.803 850.861 437.944 844.839 468.805 836.984C551.903 815.774 641.005 772.701 715.937 679.223C753.883 631.698 784.384 578.02 822.451 531.019C899.784 435.315 1017.35 409.262 1128.18 440.683C1149.56 446.705 1170.57 454.561 1190.99 464.118C1252.59 492.79 1308.43 534.947 1367.27 570.165C1380.72 578.282 1394.53 586.006 1408.58 593.076C1476.18 627.378 1550.4 646.623 1623.77 636.149C1712.15 623.45 1796.93 557.989 1818.9 472.235" stroke="#29282B" stroke-miterlimit="10"/>
<path d="M-272.829 1349.67C-232.601 1233.28 -142.899 1148.18 -38.0664 1073.3C-26.0581 1064.66 -13.8096 1056.28 -1.56109 1047.9C93.3047 983.354 192.253 924.439 280.995 890.53C322.424 874.558 361.211 863.692 398.677 853.611C427.857 845.755 456.677 837.114 486.217 826.902C565.593 799.54 650.972 752.015 724.343 659.453C761.689 612.191 792.67 559.691 831.097 513.737C908.31 421.306 1023.95 394.598 1132.99 424.71C1154.12 430.471 1174.78 438.195 1194.95 447.491C1255.71 475.639 1310.59 517.534 1368.47 552.49C1381.68 560.476 1395.25 568.201 1409.06 575.271C1475.58 609.179 1548.71 627.77 1621 617.689C1708.19 605.514 1791.76 542.933 1816.5 459.928" stroke="#29282B" stroke-miterlimit="10"/>
<path d="M-247.372 1349.41C-202.701 1236.56 -110.236 1158.13 -5.4037 1085.6C6.60463 1077.36 18.733 1069.11 30.9815 1060.86C125.367 997.625 221.434 936.222 306.933 896.815C346.921 878.224 384.027 864.215 419.932 850.992C447.911 840.649 475.29 829.521 503.75 816.953C579.522 783.306 660.939 731.33 732.869 639.815C769.614 592.814 801.076 541.493 839.743 496.587C916.716 407.298 1030.56 379.935 1137.91 408.869C1158.8 414.499 1179.1 421.961 1199.03 430.995C1258.95 458.619 1312.75 500.252 1369.67 534.947C1382.76 542.933 1395.97 550.526 1409.66 557.465C1475.1 590.981 1547.27 608.918 1618.48 599.36C1704.34 587.708 1786.96 528.008 1814.34 447.622" stroke="#29282B" stroke-miterlimit="10"/>
<path d="M-221.794 1349.15C-172.8 1239.7 -77.4538 1167.95 27.379 1098.04C39.3873 1090.06 51.5157 1082.07 63.6442 1073.95C157.549 1012.03 250.614 948.005 332.871 903.099C371.298 882.021 406.962 864.739 441.186 848.374C467.845 835.543 494.023 821.927 521.162 807.002C593.212 767.202 670.786 710.775 741.274 620.046C777.54 573.307 809.362 523.164 848.389 479.305C925.242 393.027 1037.28 365.141 1142.71 392.896C1163.25 398.264 1183.42 405.465 1202.99 414.499C1262.08 441.599 1314.91 482.971 1370.75 517.403C1383.6 525.258 1396.69 532.852 1410.02 539.66C1474.38 572.783 1545.47 590.196 1615.72 581.031C1700.38 570.034 1781.8 513.083 1811.94 435.446" stroke="#29282B" stroke-miterlimit="10"/>
<path d="M-196.336 1349.02C-143.019 1243.1 -44.7911 1178.03 60.0417 1110.48C72.05 1102.75 84.1784 1095.03 96.3069 1087.04C189.612 1026.3 279.794 959.788 358.689 909.383C395.555 885.686 429.778 865.263 462.321 845.755C487.779 830.437 512.636 814.334 538.454 796.921C606.901 750.968 680.512 690.089 749.56 600.277C785.225 553.799 817.527 504.704 856.915 462.023C933.528 378.888 1043.76 350.478 1147.4 376.924C1167.69 382.03 1187.5 389.1 1206.84 397.871C1265.08 424.318 1316.83 465.558 1371.83 499.598C1384.44 507.453 1397.29 514.916 1410.5 521.724C1473.78 554.585 1543.91 571.212 1613.08 562.44C1696.42 551.967 1776.75 497.896 1809.66 423.009" stroke="#29282B" stroke-miterlimit="10"/>
<path d="M-170.759 1348.76C-112.998 1246.38 -12.0083 1187.85 92.8244 1122.79C104.833 1115.32 116.961 1107.73 128.97 1100.14C221.674 1040.7 308.974 971.571 384.627 915.668C420.052 889.352 452.594 865.786 483.576 843.137C507.712 825.332 531.369 806.741 555.866 786.971C620.591 734.734 690.359 669.404 758.086 580.508C793.151 534.292 825.933 486.375 865.681 444.742C942.054 364.748 1050.49 335.684 1152.44 360.821C1172.37 365.665 1191.95 372.473 1211.04 381.114C1268.44 407.036 1319.12 448.015 1373.15 481.792C1385.52 489.517 1398.13 496.979 1411.1 503.656C1473.3 536.125 1542.35 552.228 1610.56 543.849C1692.57 533.899 1771.83 482.84 1807.49 410.571" stroke="#29282B" stroke-miterlimit="10"/>
<path d="M-145.181 1348.5C-83.0976 1249.65 20.7744 1197.8 125.607 1135.22C137.615 1128.02 149.624 1120.69 161.632 1113.23C253.856 1055.1 338.155 983.485 410.565 921.952C444.428 893.149 475.53 866.31 504.83 840.387C527.766 820.094 550.102 799.016 573.278 776.89C634.4 718.499 700.206 648.718 766.492 560.738C800.956 514.785 834.219 468.045 874.207 427.46C950.34 350.478 1056.97 321.02 1157.12 344.848C1176.82 349.561 1196.03 356.107 1214.88 364.486C1271.44 389.885 1321.16 430.602 1374.11 464.118C1386.24 471.842 1398.73 479.174 1411.34 485.851C1472.46 517.927 1540.55 533.375 1607.56 525.52C1688.37 516.094 1766.43 467.915 1804.85 398.395" stroke="#29282B" stroke-miterlimit="10"/>
<path d="M-119.723 1348.23C-53.317 1252.79 53.4371 1207.62 158.39 1147.53C170.398 1140.59 182.407 1133.52 194.295 1126.19C285.918 1069.24 367.335 995.137 436.503 928.236C468.925 896.815 498.346 866.834 526.085 837.769C547.82 815.119 568.835 791.423 590.69 766.809C648.21 702.265 710.173 627.901 774.898 540.969C808.881 495.277 842.385 449.586 882.853 410.178C958.745 336.338 1063.58 306.226 1162.05 328.876C1181.38 333.327 1200.47 339.611 1218.97 347.99C1274.68 372.865 1323.32 413.32 1375.43 446.574C1387.44 454.168 1399.57 461.499 1412.06 468.046C1472.1 499.729 1539.11 514.523 1605.15 507.06C1684.65 498.158 1761.62 452.859 1802.81 385.958" stroke="#29282B" stroke-miterlimit="10"/>
<path d="M-94.1453 1348.1C-23.4162 1256.2 86.2198 1217.7 191.173 1160.1C203.181 1153.55 215.189 1146.61 226.957 1139.41C318.101 1083.77 396.515 1007.05 462.321 934.651C493.182 900.612 521.162 867.488 547.22 835.282C567.634 810.145 587.448 783.829 607.982 756.99C661.899 686.292 719.9 607.477 783.183 521.331C816.567 475.901 850.55 431.387 891.379 393.158C967.031 322.33 1070.18 291.694 1166.73 313.165C1185.82 317.355 1204.56 323.508 1222.81 331.625C1277.69 355.976 1325.36 396.169 1376.4 429.031C1388.16 436.624 1400.05 443.825 1412.3 450.371C1471.26 481.661 1537.31 495.932 1602.27 488.862C1680.45 480.483 1756.34 438.064 1800.29 373.913" stroke="#29282B" stroke-miterlimit="10"/>
<path d="M-68.5676 1347.84C6.6046 1259.47 119.003 1227.52 223.955 1172.41C235.964 1166.12 247.852 1159.44 259.62 1152.37C350.163 1097.91 425.695 1018.7 488.259 940.805C517.559 904.277 543.978 867.75 568.475 832.532C587.568 804.777 606.181 776.105 625.514 746.909C675.949 670.058 729.867 586.792 791.709 501.562C824.492 456.394 858.956 412.928 900.145 375.877C975.437 308.059 1076.91 277.031 1171.65 297.193C1190.51 301.12 1208.88 307.143 1226.89 314.998C1280.93 338.826 1327.52 378.757 1377.6 411.357C1389.12 418.819 1400.77 426.02 1412.9 432.435C1470.78 463.333 1535.75 476.948 1599.75 470.402C1676.72 462.547 1751.54 423.009 1798.13 361.606" stroke="#29282B" stroke-miterlimit="10"/>
<path d="M-43.1099 1347.58C36.3853 1262.61 151.665 1237.47 256.618 1184.84C268.626 1178.82 280.515 1172.41 292.163 1165.47C382.225 1112.31 454.756 1030.62 514.077 947.089C541.936 907.943 566.673 868.274 589.609 829.914C607.502 799.671 624.914 768.511 642.806 736.828C689.639 653.824 739.593 565.975 800.115 481.792C832.298 436.886 867.122 394.467 908.671 358.595C983.723 293.788 1083.39 262.236 1176.46 281.22C1194.95 285.017 1213.2 290.646 1230.85 298.371C1284.05 321.675 1329.56 361.344 1378.8 393.682C1390.08 401.144 1401.61 408.214 1413.38 414.498C1470.18 445.134 1534.18 457.965 1597.11 451.942C1672.76 444.611 1746.49 407.952 1795.85 349.299" stroke="#29282B" stroke-miterlimit="10"/>
<path d="M-17.5321 1347.32C66.2861 1265.88 184.448 1247.42 289.401 1197.15C301.409 1191.39 313.297 1185.24 324.946 1178.43C414.408 1126.58 484.056 1042.27 540.135 953.373C566.433 911.609 589.729 868.797 610.984 827.295C627.556 794.696 643.767 760.918 660.338 726.878C703.808 637.851 749.56 545.42 808.641 462.023C840.223 417.379 875.528 376.007 917.437 341.313C992.129 279.387 1090.12 247.573 1181.38 265.248C1199.63 268.782 1217.52 274.281 1234.94 281.744C1287.29 304.393 1331.84 343.932 1380 376.007C1391.05 383.339 1402.33 390.409 1413.98 396.693C1469.7 426.936 1532.62 439.243 1594.47 433.482C1668.92 426.674 1741.45 392.896 1793.56 336.993" stroke="#29282B" stroke-miterlimit="10"/>
<path d="M8.04565 1347.19C106.394 1260.38 245.45 1255.54 357.608 1191.65C488.259 1117.29 570.876 964.763 632.119 824.808C709.452 648.325 775.138 443.694 925.963 324.294C1015.3 253.465 1136.11 221.258 1238.9 265.379C1302.3 292.61 1353.46 345.634 1414.34 379.019C1534.54 444.742 1690.65 422.354 1791.16 324.948" stroke="#29282B" stroke-miterlimit="10"/>
</g>
<mask id="mask2_11_187" style="mask-type:luminance" maskUnits="userSpaceOnUse" x="0" y="0" width="1441" height="1048">
<path d="M1441 0H0V1047.38H1441V0Z" fill="white"/>
</mask>
<g mask="url(#mask2_11_187)">
<path d="M1587.74 831.485C1508.37 790.113 1408.82 798.885 1336.65 853.741C1312.75 871.809 1291.98 894.458 1268.2 912.787C1244.42 931.116 1216.44 945.518 1187.38 943.816C1141.63 941.066 1106.21 900.612 1064.78 879.14C999.574 845.362 922.12 860.157 853.672 885.032C785.105 909.907 717.858 944.208 645.808 948.005C623.112 949.184 599.816 947.22 579.042 937.139C558.267 927.058 540.255 908.205 534.371 884.246C524.164 842.482 554.665 799.016 591.891 784.353C629.117 769.69 670.425 776.89 708.972 787.102C747.519 797.314 786.306 810.406 825.813 807.002C893.9 801.111 949.979 747.957 996.692 693.755C1043.4 639.553 1089.04 579.46 1152.44 551.967C1207.56 528.008 1269.52 531.805 1327.76 543.718C1386 555.632 1443.04 575.271 1502 582.079C1560.96 588.886 1624.13 581.424 1672.4 543.718L1587.74 831.485Z" fill="#194D59"/>
</g>
<mask id="mask3_11_187" style="mask-type:luminance" maskUnits="userSpaceOnUse" x="0" y="0" width="1441" height="1048">
<path d="M1441 0H0V1047.38H1441V0Z" fill="white"/>
</mask>
<g mask="url(#mask3_11_187)">
<path d="M-247.852 827.95C-171.479 767.595 -91.1433 705.276 2.16148 690.089C60.2818 680.663 120.203 690.22 177.964 678.175C265.024 660.108 341.397 589.803 372.498 499.205C381.144 473.937 386.668 446.967 400.718 424.842C426.416 384.125 474.81 368.938 519.841 363.439C564.872 357.941 611.825 358.988 653.373 339.481C728.305 304.263 767.092 197.954 734.91 116.259C720.5 79.6006 686.757 46.2156 650.852 54.4636C600.297 66.2466 590.089 144.407 546.139 173.995C517.319 193.503 479.613 187.742 448.151 173.864C416.689 159.856 388.229 138.515 356.047 126.994C275.831 98.1915 179.164 141.919 141.338 224.138C109.396 293.527 117.682 378.626 85.8596 448.277C64.9651 494.099 26.7786 530.234 -17.8924 546.337C-62.5634 562.441 -112.878 558.382 -154.787 535.34L-247.852 827.95Z" fill="#194D59"/>
</g>
<mask id="mask4_11_187" style="mask-type:luminance" maskUnits="userSpaceOnUse" x="0" y="0" width="1441" height="1048">
<path d="M1441 0H0V1047.38H1441V0Z" fill="white"/>
</mask>
<g mask="url(#mask4_11_187)">
<path d="M396.155 1177.25C401.559 1054.05 464.482 937.924 560.549 872.856C609.183 839.864 665.502 820.487 722.782 816.298C787.867 811.454 840.463 836.198 902.786 848.766C951.3 858.586 1001.74 860.942 1049.53 846.148C1099 830.961 1143.67 797.576 1174.53 752.801C1226.17 678.044 1217.64 583.65 1251.27 500.776C1281.65 425.758 1345.89 368.152 1419.26 350.085C1492.64 332.018 1573.33 354.013 1630.37 407.56" stroke="#F2F2F2" stroke-miterlimit="10"/>
<path d="M387.869 1177.51C392.913 1055.49 454.756 940.281 549.381 875.082C598.255 841.173 655.175 821.404 712.935 817.214C730.107 815.905 746.438 816.822 762.409 818.916C807.2 824.808 848.389 841.173 894.621 850.992C903.747 852.956 912.994 854.527 922.12 855.967C962.468 861.859 1003.54 861.335 1042.8 849.159C1064.42 842.482 1084.95 832.27 1103.93 818.916C1128.66 801.504 1150.4 779.116 1167.93 753.325C1170.45 749.528 1172.97 745.731 1175.26 741.934C1213.68 678.044 1218.25 605.645 1241.42 540.053C1245.02 529.972 1248.99 519.891 1253.55 510.203C1272.52 470.141 1301.94 436.101 1337.73 411.226C1364.15 392.897 1394.05 379.543 1425.51 372.604C1447 367.891 1469.1 366.189 1490.95 367.236C1544.75 369.723 1597.71 387.922 1636.14 420.652" stroke="#E7EBEC" stroke-miterlimit="10"/>
<path d="M379.583 1177.64C384.267 1056.8 445.269 942.768 538.334 877.307C587.568 842.744 644.968 822.32 703.328 818.262C720.62 817.083 737.192 817.869 753.283 819.964C798.554 826.117 840.103 842.875 886.695 853.087C895.942 855.051 905.188 856.884 914.435 858.324C955.143 864.608 996.812 864.477 1036.32 852.04C1058.05 845.232 1078.83 834.758 1097.8 820.88C1122.54 802.944 1143.91 779.902 1161.57 753.717C1164.09 749.92 1166.61 745.993 1168.89 742.196C1207.92 677.39 1216.8 608.132 1242.86 547.122C1246.83 537.696 1251.27 528.401 1256.19 519.498C1276.61 482.578 1306.87 451.68 1343.13 429.424C1369.91 412.928 1400.17 401.145 1431.99 394.991C1453.73 390.802 1476.06 389.231 1498.16 390.016C1552.56 391.718 1605.87 406.12 1642.38 433.744" stroke="#DDE4E6" stroke-miterlimit="10"/>
<path d="M371.298 1177.77C375.621 1058.11 435.542 944.994 527.286 879.533C576.76 844.184 634.761 823.237 693.721 819.178C711.133 818 727.945 818.785 744.277 821.011C790.028 827.295 832.057 844.446 878.89 855.181C888.136 857.276 897.503 859.24 906.869 860.68C948.058 867.488 990.087 867.488 1029.95 854.789C1051.81 847.85 1072.7 837.114 1091.8 822.713C1116.53 804.253 1137.67 780.556 1155.32 754.11C1157.96 750.182 1160.37 746.385 1162.77 742.458C1202.39 676.866 1215.48 610.489 1244.42 554.192C1248.87 545.551 1253.67 537.041 1258.95 528.662C1280.93 494.885 1311.91 467.26 1348.78 447.491C1376.03 432.959 1406.54 422.616 1438.72 417.248C1460.69 413.582 1483.15 412.273 1505.6 412.666C1560.6 413.713 1614.28 424.187 1648.74 446.574" stroke="#D2DDE1" stroke-miterlimit="10"/>
<path d="M363.012 1177.9C366.975 1059.42 425.816 947.22 516.118 881.628C565.833 845.624 624.313 824.153 683.995 820.095C701.647 818.916 718.459 819.702 735.03 822.058C781.142 828.474 823.772 846.148 870.844 857.276C880.211 859.502 889.577 861.466 899.064 863.168C940.613 870.369 983.242 870.63 1023.35 857.8C1045.45 850.73 1066.34 839.733 1085.43 824.939C1110.17 805.955 1130.94 781.604 1148.84 754.765C1151.48 750.837 1153.88 746.909 1156.28 742.982C1196.51 676.473 1213.8 613.238 1245.62 561.524C1250.55 553.538 1255.71 545.813 1261.36 538.22C1284.77 507.584 1316.59 483.233 1353.94 466.082C1381.56 453.382 1412.54 444.611 1444.96 440.028C1467.18 436.886 1489.87 435.708 1512.57 435.839C1568.05 436.232 1622.21 442.778 1654.75 459.928" stroke="#C7D6DB" stroke-miterlimit="10"/>
<path d="M354.606 1178.03C358.209 1060.73 415.969 949.445 504.95 883.853C554.785 847.064 613.986 825.069 674.268 821.011C692.04 819.833 709.092 820.749 725.784 823.106C772.376 829.783 815.486 847.719 862.799 859.371C872.285 861.727 881.772 863.822 891.258 865.524C933.288 873.249 976.398 873.641 1016.87 860.549C1039.08 853.349 1060.22 842.089 1079.31 826.771C1104.05 807.264 1124.58 782.258 1142.47 755.026C1145.11 751.098 1147.64 747.04 1150.04 743.112C1190.87 675.818 1212.36 615.594 1247.19 568.332C1252.59 561.131 1258.11 554.061 1264.12 547.253C1288.97 519.629 1321.64 498.681 1359.58 484.018C1387.56 473.151 1418.9 465.951 1451.69 462.023C1474.14 459.405 1497.08 458.357 1520.01 458.226C1576.09 457.964 1630.73 460.583 1661.11 472.497" stroke="#BCCFD5" stroke-miterlimit="10"/>
<path d="M346.32 1178.17C349.563 1062.04 406.362 951.671 493.903 886.079C543.977 848.505 603.779 825.986 664.661 822.058C682.554 820.88 699.846 821.796 716.657 824.284C763.73 831.092 807.2 849.552 854.873 861.597C864.36 864.084 873.966 866.179 883.573 868.012C925.963 876.129 969.553 876.915 1010.38 863.561C1032.72 856.229 1053.97 844.708 1073.18 828.866C1097.8 808.704 1118.1 783.044 1136.11 755.55C1138.75 751.491 1141.27 747.564 1143.67 743.505C1185.1 675.426 1210.8 618.082 1248.51 575.532C1254.27 568.986 1260.27 562.702 1266.64 556.68C1292.94 532.197 1326.32 514.392 1364.87 502.347C1393.33 493.444 1424.91 487.684 1458.05 484.542C1480.75 482.447 1503.92 481.531 1526.98 481.138C1583.54 480.09 1638.66 478.912 1667 485.72" stroke="#B2C8CF" stroke-miterlimit="10"/>
<path d="M338.035 1178.3C340.917 1063.35 396.635 953.897 482.735 888.174C533.05 849.814 593.452 826.771 654.814 822.844C672.827 821.665 690.239 822.582 707.411 825.069C754.964 832.008 798.914 850.861 846.828 863.56C856.434 866.048 866.041 868.405 875.768 870.368C918.638 879.009 962.708 879.926 1003.78 866.31C1026.23 858.847 1047.61 847.064 1066.94 830.699C1091.56 810.013 1111.61 783.698 1129.62 755.812C1132.27 751.753 1134.79 747.695 1137.31 743.636C1179.46 674.64 1209.24 620.438 1249.83 582.471C1256.07 576.711 1262.44 571.081 1269.16 565.844C1297.02 544.504 1331.12 529.971 1370.27 520.414C1399.09 513.344 1431.15 509.155 1464.54 506.798C1487.47 505.227 1510.89 504.573 1534.18 503.787C1591.34 502.085 1646.82 496.979 1673.24 498.55" stroke="#A7C1C9" stroke-miterlimit="10"/>
<path d="M329.749 1178.56C332.271 1064.79 386.908 956.253 471.687 890.53C522.242 851.385 583.125 827.819 645.208 824.022C663.34 822.844 680.993 823.891 698.285 826.379C746.318 833.579 790.749 852.825 838.902 865.917C848.629 868.535 858.356 871.023 868.083 872.987C911.313 882.02 955.863 883.199 997.292 869.321C1019.99 861.728 1041.36 849.683 1060.82 832.925C1085.43 811.584 1105.13 784.746 1123.26 756.466C1125.9 752.408 1128.42 748.218 1130.95 744.16C1173.69 674.378 1207.56 623.057 1251.27 589.803C1257.87 584.697 1264.72 579.853 1271.8 575.401C1301.1 557.203 1336.05 545.944 1375.67 539.005C1404.98 533.899 1437.28 531.15 1471.02 529.579C1494.2 528.531 1517.85 528.008 1541.39 526.96C1599.15 524.604 1654.99 515.701 1679.37 511.904" stroke="#9CBAC4" stroke-miterlimit="10"/>
<path d="M321.343 1178.69C323.504 1066.23 377.062 958.348 460.52 892.625C511.315 852.563 572.798 828.604 635.481 824.807C653.734 823.76 671.626 824.676 689.038 827.295C737.552 834.626 782.343 854.265 830.857 867.881C840.583 870.63 850.43 873.117 860.277 875.212C903.987 884.769 949.019 886.079 990.688 872.07C1013.5 864.346 1035.12 852.039 1054.45 834.757C1079.07 812.893 1098.52 785.4 1116.66 756.728C1119.3 752.538 1121.94 748.349 1124.46 744.29C1167.81 673.593 1205.88 625.413 1252.47 596.741C1259.55 592.421 1266.76 588.231 1274.2 584.566C1304.95 569.379 1340.73 561.392 1380.96 557.072C1410.62 553.799 1443.4 552.621 1477.39 551.835C1500.8 551.311 1524.7 550.919 1548.47 549.74C1606.72 546.729 1663.03 533.899 1685.37 524.865" stroke="#92B3BE" stroke-miterlimit="10"/>
<path d="M313.057 1178.82C314.859 1067.54 367.335 960.574 449.352 894.851C500.387 854.003 562.47 829.521 625.754 825.855C644.247 824.808 662.26 825.724 679.912 828.474C728.906 835.936 774.177 856.098 822.931 870.107C832.778 872.987 842.625 875.606 852.592 877.831C896.662 887.781 942.294 889.483 984.203 875.082C1007.14 867.227 1028.87 854.658 1048.33 836.853C1072.94 814.465 1092.04 786.317 1110.29 757.252C1112.93 753.063 1115.57 748.873 1118.1 744.684C1162.05 673.2 1204.2 627.901 1253.79 603.812C1261.36 600.146 1268.92 596.742 1276.73 593.862C1309.03 581.817 1345.53 577.104 1386.36 575.271C1416.38 573.831 1449.53 574.223 1483.87 574.093C1507.53 574.093 1531.54 573.831 1555.56 572.39C1614.4 568.725 1671.2 551.967 1691.49 537.827" stroke="#87ACB8" stroke-miterlimit="10"/>
<path d="M304.771 1178.95C306.212 1068.85 357.488 962.668 438.304 897.076C489.46 855.443 552.143 830.437 616.148 826.771C634.76 825.724 652.893 826.64 670.786 829.521C720.14 837.114 766.012 857.669 815.006 872.201C824.852 875.212 834.819 877.831 844.906 880.187C889.337 890.661 935.449 892.494 977.839 877.962C1001.01 869.976 1022.75 857.145 1042.32 838.947C1066.82 816.036 1085.79 787.233 1104.05 757.775C1106.69 753.455 1109.33 749.266 1111.97 745.076C1156.52 672.676 1202.75 630.388 1255.47 611.012C1263.4 608.132 1271.44 605.513 1279.61 603.288C1313.35 594.385 1350.7 592.945 1392.01 593.599C1422.51 594.123 1455.89 595.956 1490.59 596.611C1514.49 597.134 1538.75 597.134 1563 595.301C1622.33 590.85 1679.61 570.295 1697.86 550.919" stroke="#7CA6B2" stroke-miterlimit="10"/>
<path d="M296.486 1179.08C297.567 1070.16 347.761 964.894 427.256 899.171C478.652 856.753 541.936 831.223 606.541 827.688C625.274 826.641 643.647 827.688 661.659 830.437C711.494 838.293 757.846 859.24 807.2 874.165C817.167 877.176 827.254 880.057 837.341 882.413C882.252 893.28 928.845 895.375 971.474 880.58C994.77 872.463 1016.63 859.371 1036.32 840.649C1060.82 817.214 1079.43 787.626 1097.8 757.907C1100.44 753.586 1103.09 749.266 1105.73 745.076C1150.88 671.891 1201.31 632.614 1256.91 617.82C1265.32 615.595 1273.72 613.762 1282.25 612.321C1317.43 606.561 1355.5 608.263 1397.53 611.667C1428.39 614.023 1462.25 617.427 1497.2 618.868C1521.34 619.915 1545.83 620.046 1570.33 617.951C1630.25 612.845 1687.89 588.363 1704.22 563.75" stroke="#719FAC" stroke-miterlimit="10"/>
<path d="M288.2 1179.21C288.921 1071.46 338.035 966.989 416.089 901.397C467.725 858.062 531.609 832.27 596.694 828.604C615.547 827.557 634.16 828.605 652.293 831.485C702.608 839.471 749.32 860.811 799.034 876.391C809.121 879.533 819.208 882.413 829.415 885.032C874.687 896.422 921.76 898.648 964.749 883.723C988.166 875.475 1010.26 862.121 1029.95 842.875C1054.45 818.916 1072.82 788.673 1091.2 758.561C1093.84 754.241 1096.48 749.79 1099.24 745.6C1145.11 671.498 1199.51 635.233 1258.11 625.152C1266.88 623.581 1275.77 622.534 1284.65 621.879C1321.4 619.13 1360.18 624.235 1402.69 630.127C1433.91 634.447 1468.14 639.292 1503.44 641.517C1527.7 643.088 1552.56 643.35 1577.29 640.993C1637.82 635.233 1695.82 606.823 1710.11 576.973" stroke="#6798A6" stroke-miterlimit="10"/>
<path d="M279.794 1179.34C280.154 1072.77 328.068 969.083 404.921 903.492C456.677 859.371 521.282 833.056 586.967 829.521C605.941 828.473 624.673 829.521 643.166 832.532C693.962 840.649 741.154 862.513 791.109 878.486C801.196 881.759 811.403 884.77 821.73 887.388C867.482 899.171 915.035 901.79 958.265 886.472C981.921 878.224 1004.02 864.608 1023.71 844.708C1048.21 820.225 1066.22 789.328 1084.71 758.823C1087.35 754.372 1090.12 750.051 1092.76 745.6C1139.23 670.713 1197.71 637.327 1259.31 631.96C1268.56 631.174 1277.81 630.781 1287.05 630.912C1325.24 631.305 1364.87 639.684 1407.98 648.063C1439.68 654.216 1474.14 660.632 1509.81 663.512C1534.3 665.607 1559.4 665.999 1584.38 663.381C1645.38 656.966 1703.86 624.628 1716.11 589.672" stroke="#5C91A1" stroke-miterlimit="10"/>
<path d="M271.508 1179.61C271.508 1074.21 318.341 971.309 393.873 905.848C445.869 860.811 510.955 834.103 577.361 830.568C596.454 829.521 615.427 830.699 634.04 833.71C685.316 842.089 732.989 864.215 783.183 880.711C793.391 884.115 803.718 887.257 814.045 889.876C860.157 902.183 908.31 904.932 951.781 889.483C975.557 881.104 997.893 867.226 1017.59 846.933C1042.08 821.927 1059.86 790.375 1078.47 759.478C1081.11 755.026 1083.87 750.575 1086.63 746.124C1133.71 670.451 1196.39 639.815 1261 639.16C1270.72 639.03 1280.33 639.422 1289.94 640.208C1329.56 643.743 1370.03 655.395 1413.62 666.261C1445.68 674.248 1480.63 682.234 1516.53 685.9C1541.27 688.518 1566.61 689.173 1591.7 686.161C1653.31 678.961 1712.15 642.826 1722.48 602.633" stroke="#518A9B" stroke-miterlimit="10"/>
<path d="M263.223 1179.74C262.862 1075.52 308.494 973.404 382.706 908.074C434.822 862.251 500.627 835.019 567.634 831.615C586.847 830.568 606.061 831.746 624.794 834.888C676.549 843.398 724.583 866.048 775.138 882.937C785.465 886.341 795.792 889.614 806.239 892.494C852.832 905.193 901.345 908.204 945.296 892.494C969.192 883.984 991.648 869.844 1011.46 849.028C1035.96 823.367 1053.37 791.291 1072.1 760.001C1074.87 755.55 1077.51 750.967 1080.27 746.516C1127.94 669.927 1194.71 642.302 1262.32 646.361C1272.4 647.015 1282.49 648.063 1292.46 649.634C1333.65 656.311 1374.83 671.105 1419.02 684.721C1451.57 694.671 1486.75 703.966 1523.02 708.549C1547.99 711.691 1573.57 712.476 1598.91 709.203C1660.99 701.348 1720.43 661.417 1728.6 615.856" stroke="#478395" stroke-miterlimit="10"/>
<path d="M254.937 1179.87C254.216 1076.83 298.767 975.499 371.658 910.169C423.894 863.429 490.42 835.805 558.027 832.401C577.481 831.485 596.694 832.532 615.787 835.674C667.904 844.315 716.537 867.357 767.333 884.77C777.66 888.305 788.107 891.709 798.674 894.589C845.627 907.812 894.741 911.085 938.932 895.113C963.068 886.472 985.524 872.07 1005.46 850.73C1029.95 824.546 1047.13 791.684 1065.86 760.132C1068.62 755.55 1071.26 751.099 1074.15 746.516C1122.42 669.141 1193.39 644.397 1263.88 653.169C1274.44 654.478 1284.89 656.311 1295.22 658.668C1337.85 668.356 1379.88 686.554 1424.55 702.657C1457.45 714.44 1493 725.307 1529.62 730.675C1554.84 734.341 1580.66 735.257 1606.23 731.722C1668.92 723.212 1728.72 679.353 1734.96 628.556" stroke="#3C7C8F" stroke-miterlimit="10"/>
<path d="M246.531 1180C245.45 1078.14 288.8 977.462 360.49 912.394C412.967 864.739 480.093 836.721 548.3 833.448C567.874 832.532 587.328 833.579 606.541 836.852C659.137 845.755 708.252 869.19 759.287 887.126C769.734 890.792 780.181 894.196 790.869 897.338C838.302 910.954 887.776 914.489 932.327 898.255C956.584 889.483 979.279 874.82 999.213 853.087C1023.71 826.378 1040.52 792.862 1059.38 761.048C1062.14 756.466 1064.9 751.884 1067.66 747.302C1116.53 669.01 1191.59 647.277 1265.2 660.762C1276.13 662.726 1287.05 665.345 1297.74 668.487C1341.81 681.317 1384.68 702.788 1429.95 721.379C1463.22 735.126 1499.24 747.433 1536.11 753.455C1561.56 757.644 1587.5 758.692 1613.44 755.026C1676.6 745.861 1736.89 698.075 1741.09 642.171" stroke="#317589" stroke-miterlimit="10"/>
<path d="M238.245 1180.13C236.804 1079.45 278.954 979.557 349.322 914.62C401.919 866.048 469.646 837.638 538.454 834.365C558.147 833.448 577.841 834.627 597.174 837.9C650.251 846.933 699.846 870.761 751.121 889.221C761.689 893.018 772.256 896.553 782.943 899.695C830.737 913.834 880.811 917.5 925.602 901.135C949.979 892.232 972.795 877.307 992.729 855.051C1017.23 827.819 1033.8 793.648 1052.65 761.441C1055.41 756.728 1058.17 752.146 1061.06 747.564C1110.65 668.487 1189.79 649.372 1266.28 667.832C1277.69 670.582 1288.97 673.855 1300.02 677.782C1345.53 693.755 1389.12 718.368 1435 739.577C1468.74 755.157 1505 769.035 1542.23 775.843C1567.93 780.556 1594.11 781.865 1620.16 777.807C1683.93 767.857 1744.57 716.273 1746.73 655.133" stroke="#266E84" stroke-miterlimit="10"/>
<path d="M229.96 1180.26C228.158 1080.76 268.987 981.521 338.275 916.715C390.871 867.226 459.439 838.423 528.847 835.281C548.661 834.365 568.474 835.543 588.048 838.947C641.605 848.112 691.56 872.463 743.196 891.316C753.763 895.244 764.45 898.778 775.258 902.052C823.531 916.584 874.087 920.511 919.118 903.884C943.615 894.851 966.551 879.664 986.605 856.883C1011.1 829.128 1027.31 794.303 1046.29 761.703C1049.05 756.99 1051.81 752.277 1054.69 747.695C1104.89 667.701 1188.22 651.729 1267.6 674.64C1279.49 678.044 1291.14 682.234 1302.54 686.816C1349.62 705.931 1393.93 733.817 1440.4 757.645C1474.5 775.057 1511.13 790.506 1548.71 798.1C1574.65 803.336 1601.07 804.777 1627.37 800.456C1691.73 789.851 1752.74 734.341 1752.98 667.963" stroke="#1C677E" stroke-miterlimit="10"/>
<path d="M221.674 1180.39C219.512 1082.07 259.26 983.616 327.227 918.94C395.194 854.265 489.94 824.546 579.042 839.994C644.247 851.254 704.169 884.901 767.573 904.539C842.745 927.712 923.561 925.094 980.48 858.978C1008.46 826.509 1025.27 784.876 1048.45 748.087C1099.24 667.308 1186.78 654.216 1269.16 681.841C1331.96 702.919 1387.56 743.243 1445.92 775.974C1504.4 808.704 1569.85 834.627 1634.69 823.367C1699.54 812.108 1761.14 752.67 1759.22 681.055" stroke="#116078" stroke-miterlimit="10"/>
<path d="M238.245 1180.26C238.966 1084.16 280.515 990.031 348.482 926.927C356.287 919.726 364.333 912.918 372.739 906.503C437.584 857.276 519 833.841 595.733 843.922C631.518 848.636 665.622 860.026 699.605 872.071C725.784 881.366 751.962 890.923 778.86 897.862C851.631 916.977 929.925 911.478 986.004 846.017C1013.62 813.81 1030.8 772.832 1054.09 736.697C1104.77 657.882 1191.11 644.397 1272.28 671.367C1287.65 676.473 1302.66 682.757 1317.43 689.827C1361.87 711.298 1403.41 739.97 1446.76 764.322C1456.61 769.951 1466.82 775.319 1477.02 780.294C1526.5 804.515 1580.06 820.225 1633.01 811.192C1697.02 800.194 1757.9 742.72 1757.78 672.938" stroke="#11677E" stroke-miterlimit="10"/>
<path d="M254.817 1180.13C258.299 1086.39 301.769 996.577 369.737 935.044C377.542 927.974 385.588 921.297 393.993 915.013C458.478 866.572 537.973 841.566 612.665 848.112C647.489 851.123 680.512 860.549 713.415 870.499C738.873 878.093 764.21 886.079 790.148 891.447C860.637 906.503 936.29 898.124 991.408 833.317C1018.67 801.242 1036.2 761.049 1059.62 725.7C1110.29 649.11 1195.31 635.102 1275.41 661.155C1290.66 666.13 1305.43 672.284 1319.96 679.222C1363.79 700.301 1404.73 728.842 1447.36 753.062C1457.09 758.561 1467.06 763.929 1477.15 768.904C1525.9 792.863 1578.74 808.18 1631.09 799.409C1694.26 788.804 1754.42 733.162 1756.1 665.083" stroke="#126E85" stroke-miterlimit="10"/>
<path d="M271.388 1180C277.753 1088.48 323.024 1002.99 390.991 943.161C398.797 936.353 406.842 929.807 415.128 923.654C479.253 875.998 556.946 849.29 629.357 852.301C663.22 853.611 695.283 860.942 727.105 868.798C751.722 874.82 776.219 880.973 801.316 885.032C869.403 895.898 942.534 884.77 996.812 820.487C1023.71 788.542 1041.6 749.135 1065.14 714.441C1115.81 639.946 1199.51 625.545 1278.41 650.682C1293.42 655.526 1308.07 661.548 1322.48 668.356C1365.83 689.042 1406.06 717.452 1448.09 741.411C1457.69 746.909 1467.54 752.146 1477.51 757.121C1525.66 780.818 1577.78 795.743 1629.41 787.233C1691.85 777.021 1751.18 723.212 1754.66 656.835" stroke="#12748B" stroke-miterlimit="10"/>
<path d="M287.96 1179.87C297.086 1090.71 344.279 1009.54 412.246 951.148C420.051 944.471 428.097 938.055 436.383 932.033C500.147 885.294 575.8 856.884 646.168 856.36C678.951 856.098 710.053 861.335 740.914 867.096C764.691 871.547 788.467 875.998 812.724 878.486C878.53 885.163 949.019 871.416 1002.34 807.657C1028.87 775.843 1047.01 737.221 1070.78 703.312C1121.46 630.913 1203.84 615.988 1281.65 640.47C1296.54 645.183 1310.95 650.944 1325.12 657.752C1367.87 678.175 1407.5 706.324 1448.81 730.151C1458.29 735.65 1467.9 740.887 1477.75 745.731C1525.18 769.166 1576.69 783.699 1627.61 775.45C1689.21 765.5 1747.81 713.655 1753.1 649.111" stroke="#137B92" stroke-miterlimit="10"/>
<path d="M304.531 1179.74C316.54 1092.8 365.534 1015.95 433.501 959.265C441.306 952.718 449.352 946.565 457.518 940.543C520.922 894.589 594.773 864.608 662.98 860.418C694.802 858.455 724.943 861.597 754.604 865.394C777.54 868.274 800.475 871.023 823.892 872.071C887.296 874.689 955.383 858.062 1007.62 794.958C1033.8 763.405 1052.29 725.569 1076.19 692.184C1126.74 621.879 1207.92 606.561 1284.53 630.127C1299.18 634.578 1313.47 640.339 1327.52 647.016C1369.67 667.047 1408.7 695.064 1449.41 718.761C1458.77 724.129 1468.26 729.366 1477.99 734.21C1524.7 757.383 1575.49 771.523 1625.81 763.667C1686.57 754.11 1744.45 704.098 1751.54 641.255" stroke="#138298" stroke-miterlimit="10"/>
<path d="M321.103 1179.61C335.993 1094.9 386.788 1022.37 454.756 967.381C462.561 961.097 470.607 954.944 478.772 949.183C541.816 904.015 613.746 872.332 679.912 864.608C710.773 860.942 739.833 862.12 768.533 863.822C790.749 865.131 812.724 866.179 835.3 865.655C896.302 864.215 961.868 844.708 1013.26 782.258C1038.96 750.837 1057.81 713.786 1081.95 681.055C1132.51 612.714 1212.36 597.003 1287.89 619.915C1302.42 624.235 1316.47 629.865 1330.28 636.411C1371.95 656.049 1410.26 683.936 1450.37 707.371C1459.49 712.738 1468.86 717.844 1478.47 722.688C1524.46 745.731 1574.65 759.347 1624.25 751.753C1684.17 742.589 1741.33 694.409 1750.21 633.4" stroke="#13899F" stroke-miterlimit="10"/>
<path d="M337.674 1179.47C355.327 1097.12 408.043 1028.91 476.01 975.368C483.816 969.214 491.741 963.323 499.907 957.562C562.59 913.18 632.599 879.926 696.603 868.666C726.504 863.299 754.604 862.382 782.223 862.12C803.598 861.858 824.852 861.204 846.587 859.109C905.308 853.479 968.232 831.223 1018.67 769.297C1044 738.006 1063.22 701.741 1087.59 669.796C1138.03 603.549 1216.8 587.446 1291.02 609.441C1305.31 613.631 1319.24 619.129 1332.92 625.544C1373.99 644.921 1411.58 672.545 1451.09 695.849C1460.09 701.217 1469.34 706.323 1478.71 711.036C1523.98 733.817 1573.45 747.04 1622.45 739.708C1681.53 730.806 1737.97 684.59 1748.65 625.283" stroke="#148FA5" stroke-miterlimit="10"/>
<path d="M354.246 1179.21C374.78 1099.09 429.298 1035.2 497.265 983.354C505.071 977.462 512.996 971.571 521.162 965.941C583.485 922.475 651.572 887.519 713.535 872.594C742.475 865.524 769.494 862.644 796.033 860.156C816.567 858.193 836.981 855.967 857.875 852.432C914.195 842.744 974.596 817.607 1024.19 756.335C1049.17 725.307 1068.62 689.696 1093.24 658.406C1143.55 594.254 1221.13 577.758 1294.26 598.967C1308.31 603.026 1322.12 608.263 1335.57 614.547C1376.16 633.531 1413.02 661.024 1451.93 684.197C1460.81 689.434 1469.94 694.54 1479.19 699.253C1523.74 721.772 1572.61 734.602 1620.89 727.533C1679.13 719.023 1734.84 674.64 1747.33 617.035" stroke="#1496AB" stroke-miterlimit="10"/>
<path d="M370.937 1179.08C394.234 1101.18 450.673 1041.61 518.64 991.34C526.445 985.58 534.371 979.95 542.416 974.451C604.379 931.771 670.545 895.113 730.347 876.653C758.206 868.012 784.384 862.906 809.842 858.455C829.536 854.92 849.109 850.992 869.163 845.886C923.081 832.139 980.961 804.122 1029.59 743.505C1054.21 712.608 1074.03 677.782 1098.76 647.278C1148.96 585.221 1225.33 568.201 1297.26 588.625C1311.19 592.552 1324.76 597.658 1338.09 603.812C1378.08 622.403 1414.34 649.765 1452.53 672.677C1461.29 677.913 1470.18 682.888 1479.31 687.602C1523.14 709.858 1571.41 722.296 1618.96 715.488C1676.36 707.24 1731.48 664.69 1745.65 609.048" stroke="#149DB2" stroke-miterlimit="10"/>
<path d="M387.509 1178.95C413.687 1103.41 471.927 1048.16 539.895 999.457C547.7 993.827 555.626 988.329 563.551 982.961C625.154 941.066 689.518 902.837 747.158 880.842C774.057 870.499 799.155 863.429 823.532 856.883C842.505 851.777 861.118 846.148 880.451 839.602C931.967 821.796 987.445 790.899 1035.12 730.805C1059.38 700.039 1079.43 665.999 1104.41 636.149C1154.48 576.056 1229.65 558.774 1300.5 578.281C1314.19 582.078 1327.64 587.053 1340.73 593.076C1380.24 611.274 1415.78 638.506 1453.37 661.286C1462.01 666.523 1470.78 671.498 1479.79 676.08C1523.02 698.075 1570.45 710.12 1617.4 703.705C1673.96 695.849 1728.36 655.133 1744.33 601.193" stroke="#15A4B8" stroke-miterlimit="10"/>
<path d="M404.08 1178.82C433.02 1105.5 493.182 1054.58 561.149 1007.57C568.955 1002.21 576.88 996.839 584.806 991.471C646.048 950.362 708.492 910.561 763.97 884.901C789.908 872.856 814.045 863.691 837.341 855.181C855.474 848.504 873.366 841.304 891.739 833.056C940.853 811.192 993.81 777.545 1040.52 717.975C1064.42 687.47 1084.83 654.085 1109.93 625.021C1159.88 567.022 1233.86 549.217 1303.5 568.07C1317.07 571.736 1330.28 576.58 1343.13 582.471C1382.04 600.407 1416.98 627.508 1453.97 650.027C1462.49 655.133 1471.02 660.108 1479.91 664.69C1522.42 686.423 1569.25 698.075 1615.48 691.922C1671.2 684.459 1724.88 645.575 1742.65 593.469" stroke="#15AABF" stroke-miterlimit="10"/>
<path d="M420.652 1178.69C452.474 1107.6 514.437 1060.99 582.404 1015.56C590.21 1010.32 598.135 1005.22 605.941 999.981C666.823 959.788 727.345 918.155 780.782 889.091C805.759 875.344 828.935 864.215 851.151 853.48C868.443 845.232 885.495 836.329 903.027 826.641C949.859 800.718 1000.17 764.191 1045.93 705.276C1069.46 674.902 1090.12 642.303 1115.45 613.893C1165.29 557.858 1238.06 539.791 1306.63 557.727C1319.96 561.262 1333.05 565.844 1345.77 571.736C1384.2 589.279 1418.42 616.249 1454.69 638.506C1462.98 643.612 1471.5 648.456 1480.15 653.038C1521.94 674.64 1568.17 685.9 1613.68 679.877C1668.56 672.677 1721.51 635.757 1741.09 585.352" stroke="#16B1C5" stroke-miterlimit="10"/>
<path d="M437.223 1178.56C471.807 1109.82 535.692 1067.54 603.659 1023.68C611.464 1018.7 619.27 1013.6 627.195 1008.49C687.837 969.083 746.318 925.879 797.593 893.149C821.61 877.831 843.705 864.477 864.84 851.777C881.412 841.827 897.503 831.353 914.315 820.094C958.745 790.244 1006.54 750.706 1051.45 692.445C1074.63 662.202 1095.64 630.388 1121.1 602.633C1170.81 548.693 1242.38 530.233 1309.75 547.384C1322.96 550.657 1335.81 555.239 1348.3 561C1386.12 578.151 1419.75 604.99 1455.41 627.115C1463.58 632.221 1471.98 637.065 1480.51 641.517C1521.58 662.857 1567.09 673.724 1612 667.963C1666.16 661.155 1718.27 626.068 1739.65 577.365" stroke="#16B8CC" stroke-miterlimit="10"/>
<path d="M453.795 1178.43C491.261 1111.92 556.947 1073.95 624.914 1031.8C632.719 1026.95 640.525 1022.11 648.33 1017C708.612 978.379 765.171 933.604 814.405 897.208C837.341 880.188 858.596 864.87 878.65 850.076C894.381 838.555 909.631 826.379 925.602 813.549C967.632 779.64 1012.9 737.221 1056.85 679.485C1079.67 649.373 1100.92 618.344 1126.74 591.374C1176.34 539.398 1246.71 520.545 1312.87 536.911C1325.84 540.053 1338.57 544.504 1350.94 550.134C1388.28 567.023 1421.19 593.6 1456.25 615.464C1464.3 620.439 1472.46 625.283 1480.87 629.734C1521.22 650.813 1566.13 661.286 1610.32 655.788C1663.63 649.242 1715.03 616.118 1738.21 569.248" stroke="#16BFD2" stroke-miterlimit="10"/>
<path d="M470.366 1178.17C510.714 1113.88 578.201 1080.24 646.168 1039.65C653.974 1034.94 661.779 1030.22 669.585 1025.38C729.506 987.543 784.144 941.066 831.217 901.266C853.192 882.544 873.366 865.131 892.459 848.373C907.35 835.281 921.88 821.534 936.89 807.133C976.638 769.296 1019.39 723.866 1062.38 666.785C1084.83 636.934 1106.33 606.56 1132.39 580.245C1181.86 530.233 1251.03 511.118 1316.11 526.567C1328.84 529.578 1341.45 533.899 1353.58 539.398C1390.32 555.894 1422.51 582.34 1456.97 604.073C1464.9 609.048 1472.94 613.761 1481.23 618.212C1520.86 639.029 1565.17 649.11 1608.64 644.004C1661.11 637.851 1711.79 606.56 1736.77 561.392" stroke="#17C5D8" stroke-miterlimit="10"/>
<path d="M486.938 1178.03C530.048 1116.11 599.456 1086.78 667.543 1047.77C675.349 1043.32 683.154 1038.73 690.839 1033.89C750.401 996.97 803.117 948.791 848.028 905.325C869.043 884.901 888.256 865.393 906.149 846.541C920.199 831.747 933.888 816.429 948.178 800.456C985.524 758.561 1025.75 710.251 1067.78 653.824C1089.76 624.104 1111.61 594.516 1137.91 568.986C1187.14 520.938 1255.35 501.431 1319.12 516.225C1331.72 519.105 1344.09 523.164 1356.1 528.531C1392.25 544.635 1423.83 570.95 1457.69 592.552C1465.5 597.527 1473.3 602.24 1481.47 606.561C1520.38 627.116 1563.97 636.804 1606.84 631.96C1658.47 626.199 1708.43 596.742 1735.2 553.407" stroke="#17CCDF" stroke-miterlimit="10"/>
<path d="M503.509 1177.9C549.501 1118.2 620.591 1093.2 688.798 1055.75C696.603 1051.43 704.409 1046.98 712.094 1042.27C771.295 1006.13 822.211 956.384 864.96 909.252C885.014 887.126 903.147 865.655 920.078 844.708C933.288 828.342 946.257 811.323 959.586 793.91C994.65 748.087 1032.24 696.766 1073.42 640.862C1095.04 611.274 1117.14 582.471 1143.67 557.596C1192.79 511.643 1259.79 491.742 1322.48 505.62C1334.85 508.369 1347.09 512.297 1358.86 517.534C1394.53 533.376 1425.39 559.429 1458.53 580.769C1466.1 585.744 1473.9 590.327 1481.83 594.647C1520.13 614.94 1563 624.235 1605.15 619.653C1655.95 614.154 1705.18 586.661 1733.76 545.028" stroke="#17D3E5" stroke-miterlimit="10"/>
<path d="M520.081 1177.77C568.835 1120.43 641.846 1099.74 710.053 1063.87C717.858 1059.81 725.664 1055.49 733.229 1050.91C792.07 1015.56 841.064 964.108 881.652 913.572C900.745 889.875 917.797 866.179 933.768 843.267C946.137 825.331 958.265 806.609 970.754 787.625C1003.54 737.744 1038.48 683.673 1078.71 628.294C1099.96 598.967 1122.42 570.688 1149.08 546.598C1197.95 502.478 1263.88 482.447 1325.36 495.539C1337.61 498.157 1349.62 501.954 1361.26 507.06C1396.33 522.509 1426.59 548.431 1459.13 569.641C1466.58 574.485 1474.26 579.198 1482.07 583.387C1519.65 603.549 1561.8 612.321 1603.35 608.001C1653.31 602.895 1701.82 577.234 1732.2 537.303" stroke="#18DAEC" stroke-miterlimit="10"/>
<path d="M536.652 1177.64C588.288 1122.52 663.1 1106.16 731.308 1071.99C739.113 1068.06 746.798 1063.87 754.363 1059.42C812.844 1024.86 859.917 971.833 898.463 917.631C916.476 892.232 932.687 866.441 947.458 841.566C959.106 821.927 970.393 801.765 981.921 781.211C1012.3 727.402 1044.73 670.32 1083.99 615.594C1104.89 586.399 1127.58 558.905 1154.48 535.601C1203.24 493.444 1267.96 473.021 1328.36 485.327C1340.37 487.815 1352.14 491.481 1363.67 496.456C1398.25 511.512 1427.79 537.303 1459.73 558.382C1467.06 563.226 1474.5 567.808 1482.19 571.867C1519.05 591.767 1560.6 600.146 1601.43 596.087C1650.55 591.243 1698.46 567.546 1730.52 529.448" stroke="#18E0F2" stroke-miterlimit="10"/>
<path d="M553.224 1177.51C607.622 1124.62 684.355 1112.57 752.562 1079.97C760.368 1076.18 768.053 1072.25 775.618 1067.8C833.739 1034.15 878.89 979.426 915.275 921.69C932.327 894.589 947.458 866.833 961.267 839.864C972.075 818.654 982.522 796.79 993.329 774.664C1021.55 716.797 1051.33 656.835 1089.64 602.764C1110.17 573.699 1133.11 546.991 1160.25 524.342C1208.76 484.149 1272.4 463.463 1331.6 474.984C1343.49 477.21 1355.02 480.876 1366.43 485.72C1400.41 500.514 1429.35 526.044 1460.57 546.86C1467.78 551.704 1475.1 556.156 1482.67 560.214C1518.81 579.853 1559.76 587.839 1599.87 584.173C1648.14 579.722 1695.34 557.858 1729.2 521.462" stroke="#19E7F9" stroke-miterlimit="10"/>
<path d="M569.795 1177.38C633.68 1120.95 723.982 1117.81 796.753 1076.44C881.532 1028.13 935.209 929.152 974.957 838.162C1025.15 723.605 1067.78 590.719 1165.77 513.083C1223.77 467.129 1302.18 446.182 1368.95 474.853C1410.14 492.528 1443.4 526.96 1482.91 548.563C1560.96 591.243 1662.31 576.711 1727.64 513.475" stroke="#19EEFF" stroke-miterlimit="10"/>
</g>
<mask id="mask5_11_187" style="mask-type:luminance" maskUnits="userSpaceOnUse" x="0" y="0" width="1441" height="1048">
<path d="M1441 0H0V1047.38H1441V0Z" fill="white"/>
</mask>
<g mask="url(#mask5_11_187)">
<path d="M-71.4496 815.643C19.5736 857.8 137.615 803.468 173.64 703.181C193.935 646.623 189.852 583.65 184.088 523.295C175.922 437.934 162.593 316.569 232.601 255.167C260.101 231.077 297.326 220.734 332.03 227.673C384.507 238.147 424.975 283.97 474.81 304.262C530.288 326.912 585.766 319.057 629.357 276.245C670.906 235.529 703.688 185.385 746.198 145.847C818.968 78.1604 918.998 47.5247 1013.62 61.0097C1123.14 76.7203 1225.45 132.755 1338.33 123.067C1382.04 119.401 1423.59 102.905 1457.81 72.6617C1519.65 18.0673 1567.09 -52.6305 1611.4 -124.376" stroke="#F2F2F2" stroke-miterlimit="10"/>
<path d="M-72.1701 800.326C-6.84476 827.295 73.2508 804.777 126.448 753.456C145.421 734.996 161.032 712.87 170.999 687.733C180.966 662.858 185.889 636.673 188.05 609.965C190.572 578.937 189.251 547.384 187.45 516.225C186.369 495.67 184.808 472.759 184.328 449.062C182.767 378.102 189.251 299.418 240.527 253.203C267.426 228.852 303.691 217.854 337.794 223.484C389.31 231.994 430.018 274.936 479.733 294.312C509.153 305.834 538.574 309.238 566.073 303.87C590.09 299.157 612.905 287.766 633.199 269.306C674.748 231.47 708.011 184.993 750.521 148.596C823.171 86.0158 921.88 58.5222 1015.91 71.0907C1021.19 71.7453 1026.35 72.5308 1031.64 73.4473C1129.38 89.6816 1221.97 131.708 1321.4 125.554C1326.44 125.292 1331.48 124.769 1336.53 124.245C1379.4 119.401 1420.11 102.381 1453.73 72.1381C1514.61 17.5436 1561.44 -52.7614 1605.15 -123.983" stroke="#E8F2F3" stroke-miterlimit="10"/>
<path d="M-73.0107 785.008C-9.36648 807.919 69.168 784.222 122.605 734.996C141.698 717.321 157.549 696.243 168.117 672.284C178.564 648.718 184.448 623.843 187.45 598.575C191.053 569.118 191.053 539.006 190.572 509.155C190.332 489.386 189.732 467.26 189.972 444.218C190.812 375.222 198.138 297.586 248.212 250.977C274.511 226.495 309.815 214.581 343.318 218.902C393.993 225.448 434.822 265.51 484.296 283.97C513.476 294.967 542.537 298.371 570.036 293.658C593.932 289.468 616.508 278.995 636.802 261.975C678.351 227.019 712.094 184.338 754.484 150.822C827.014 93.4784 924.522 68.996 1017.71 80.648C1022.87 81.3026 1028.15 82.0882 1033.32 82.8737C1130.34 97.6679 1222.09 135.373 1319.48 126.602C1324.4 126.209 1329.32 125.554 1334.37 124.9C1376.4 119.008 1416.26 101.334 1449.29 71.0907C1509.09 16.3654 1555.32 -53.416 1598.55 -124.114" stroke="#DDF2F3" stroke-miterlimit="10"/>
<path d="M-73.8512 769.559C-11.8883 788.281 65.0852 763.406 118.882 716.274C138.096 699.385 154.187 679.354 165.355 656.704C176.402 634.317 183.007 611.013 187.09 587.054C191.773 559.168 193.094 530.627 193.935 501.955C194.535 482.971 194.895 461.762 195.976 439.374C199.218 372.342 207.264 295.884 256.138 248.883C281.836 224.138 316.179 211.439 349.082 214.45C398.917 219.033 439.865 256.345 489.099 273.758C518.039 284.101 546.859 287.636 574.118 283.446C597.775 279.78 620.23 270.223 640.525 254.643C682.193 222.436 716.297 183.553 758.687 153.179C830.977 101.072 927.284 79.6007 1019.87 90.3363C1025.03 90.9909 1030.19 91.6455 1035.36 92.3001C1131.55 105.785 1222.45 139.039 1317.91 127.649C1322.72 126.994 1327.64 126.34 1332.44 125.554C1373.63 118.485 1412.66 100.286 1445.08 70.0434C1503.8 15.3181 1549.44 -54.0705 1592.18 -124.245" stroke="#D3F1F4" stroke-miterlimit="10"/>
<path d="M-74.6918 754.241C-14.41 768.904 61.0024 742.851 115.16 697.683C134.493 681.579 150.945 662.596 162.593 641.255C174.241 620.177 181.566 598.182 186.61 575.533C192.494 549.217 195.015 522.117 197.177 494.754C198.618 476.556 200.059 456.132 201.86 434.399C207.504 369.331 216.27 293.92 264.063 246.657C289.161 221.782 322.544 208.297 354.846 209.868C403.72 212.486 444.909 246.788 493.903 263.415C522.603 273.103 551.182 276.638 578.201 273.103C601.738 269.961 623.953 261.451 644.127 247.181C685.796 217.854 720.38 182.636 762.649 155.404C834.819 108.534 929.805 90.0744 1021.67 99.8935C1026.83 100.417 1031.88 101.072 1037.04 101.726C1132.39 113.902 1222.45 142.836 1315.99 128.696C1320.8 127.911 1325.48 127.125 1330.28 126.209C1370.63 118.092 1408.7 99.2389 1440.64 68.865C1498.28 14.0087 1543.31 -54.8562 1585.58 -124.507" stroke="#C9F1F4" stroke-miterlimit="10"/>
<path d="M-75.4123 738.923C-16.6916 749.528 57.0396 722.296 111.557 679.223C131.011 663.774 147.703 645.969 159.951 625.938C172.079 606.168 180.365 585.483 186.249 564.273C193.214 539.66 197.057 513.999 200.659 487.815C203.061 470.402 205.222 450.764 207.864 429.686C215.67 366.45 225.516 292.218 272.109 244.562C296.606 219.425 328.908 205.155 360.73 205.547C408.764 206.071 450.072 237.754 498.826 253.334C527.286 262.498 555.626 266.033 582.404 263.153C605.7 260.666 627.796 252.941 647.97 240.111C689.759 213.665 724.703 182.374 766.972 158.023C839.022 116.521 932.807 100.941 1023.95 109.844C1028.99 110.367 1034.04 110.891 1039.2 111.415C1133.71 122.281 1222.93 146.764 1314.55 129.875C1319.24 128.958 1323.92 128.042 1328.48 126.994C1367.99 117.83 1405.22 98.3224 1436.56 67.9486C1493.24 13.0923 1537.55 -55.3798 1579.34 -124.507" stroke="#BEF1F5" stroke-miterlimit="10"/>
<path d="M-76.2529 723.475C-19.2133 730.021 52.9567 701.48 107.835 660.501C127.408 645.838 144.34 629.08 157.309 610.358C170.038 591.898 179.044 572.653 186.009 552.752C194.055 529.71 199.218 505.49 204.142 480.614C207.384 463.987 210.626 445.266 213.989 424.842C224.196 363.57 234.763 290.385 280.154 242.468C304.051 217.069 335.393 202.013 366.614 201.096C413.807 199.656 455.356 228.459 503.75 243.122C531.969 251.632 560.069 255.298 586.607 252.941C609.783 250.977 631.638 244.17 651.812 232.779C693.601 209.213 729.026 181.589 771.175 160.249C843.105 123.983 935.569 111.415 1026.11 119.401C1031.16 119.794 1036.2 120.317 1041.12 120.841C1134.91 130.267 1223.29 150.429 1312.87 130.922C1317.43 129.875 1322 128.827 1326.56 127.518C1365.23 117.175 1401.61 97.1443 1432.35 66.7704C1487.95 11.7832 1531.66 -56.1652 1572.97 -124.768" stroke="#B4F1F6" stroke-miterlimit="10"/>
<path d="M-77.0935 708.157C-21.7351 710.644 48.8739 680.925 104.112 641.91C123.806 628.032 140.978 612.322 154.547 594.909C167.877 577.627 177.723 559.822 185.529 541.231C194.655 519.76 201.14 496.98 207.384 473.414C211.587 457.572 215.67 439.636 219.752 419.867C232.361 360.559 243.769 288.421 287.96 240.242C311.256 214.712 341.637 198.87 372.258 196.514C418.49 193.11 460.279 219.032 508.433 232.779C536.412 240.765 564.272 244.431 590.57 242.598C613.506 241.158 635.361 235.267 655.415 225.317C697.324 204.5 733.109 180.803 775.258 162.474C847.068 131.446 938.211 122.019 1028.03 128.958C1032.96 129.351 1038 129.744 1042.92 130.267C1135.87 138.384 1223.41 154.357 1311.07 131.969C1315.51 130.791 1319.96 129.613 1324.52 128.173C1362.35 116.782 1397.89 96.0967 1428.03 65.7229C1482.55 10.7357 1525.66 -56.82 1566.49 -124.899" stroke="#AAF1F6" stroke-miterlimit="10"/>
<path d="M-77.814 692.839C-24.1367 691.268 44.9112 660.239 100.51 623.45C120.324 610.227 137.856 595.695 151.905 579.591C165.715 563.619 176.402 547.123 185.169 529.972C195.496 510.072 203.181 488.862 210.746 466.475C215.79 451.419 220.833 434.268 225.757 415.284C240.767 357.941 252.896 286.85 295.885 238.409C318.581 212.617 348.001 195.99 378.022 192.455C423.414 187.087 465.323 210.261 513.236 222.96C540.855 230.292 568.595 233.958 594.773 232.91C617.589 231.994 639.204 227.15 659.257 218.509C701.287 200.572 737.432 180.541 779.461 165.354C851.031 139.563 941.093 133.148 1030.19 139.17C1035.12 139.563 1040.04 139.825 1044.97 140.217C1137.07 147.025 1223.89 158.677 1309.63 133.54C1313.95 132.231 1318.39 130.922 1322.72 129.351C1359.7 116.913 1394.29 95.5731 1423.95 65.0683C1477.39 9.95018 1519.89 -57.0818 1560.24 -124.507" stroke="#9FF0F7" stroke-miterlimit="10"/>
<path d="M-78.6546 677.521C-26.6585 671.891 40.8283 639.684 96.7871 604.859C116.721 592.422 134.493 578.937 149.144 564.142C163.554 549.479 174.961 534.423 184.688 518.582C196.096 500.122 205.102 480.483 213.989 459.536C219.993 445.265 225.877 428.9 231.641 410.571C248.933 355.191 262.022 285.148 303.811 236.314C325.906 210.392 354.246 192.848 383.786 188.004C428.337 180.672 470.366 200.965 518.04 212.748C545.419 219.556 572.918 223.222 598.856 222.698C621.431 222.305 642.926 218.378 662.98 211.177C705.009 196.121 741.635 179.887 783.664 167.711C855.113 147.025 943.855 143.752 1032.24 148.858C1037.16 149.12 1041.96 149.382 1046.89 149.775C1138.15 155.273 1224.13 162.474 1307.95 134.719C1312.27 133.279 1316.47 131.838 1320.8 130.136C1356.94 116.521 1390.69 94.6566 1419.63 64.1518C1472.1 9.0337 1513.89 -57.6055 1553.76 -124.507" stroke="#95F0F8" stroke-miterlimit="10"/>
<path d="M-79.4952 662.072C-29.1803 652.384 36.7455 618.999 93.0646 586.268C112.998 574.616 131.131 562.179 146.382 548.563C161.392 535.209 173.64 521.462 184.328 506.93C196.817 490.041 207.264 471.843 217.351 452.204C224.316 438.719 231.04 423.271 237.525 405.465C257.218 352.049 271.028 283.053 311.736 233.958C333.231 207.773 360.61 189.575 389.55 183.291C433.141 173.995 475.41 191.408 522.843 202.275C549.982 208.428 577.241 212.225 602.938 212.356C625.394 212.486 646.769 209.475 666.703 203.715C708.852 191.539 745.717 178.97 787.747 169.937C858.956 154.488 946.497 154.226 1034.28 158.416C1039.08 158.678 1044 158.939 1048.81 159.07C1139.35 163.129 1224.49 166.009 1306.27 135.635C1310.47 134.064 1314.67 132.362 1318.76 130.66C1354.06 115.997 1386.96 93.4784 1415.3 62.9737C1466.7 7.72462 1507.89 -58.3909 1547.27 -124.768" stroke="#8BF0F8" stroke-miterlimit="10"/>
<path d="M-80.3357 646.754C-31.702 633.007 32.6627 598.313 89.342 567.677C109.396 556.68 127.889 545.421 143.62 533.114C159.11 520.938 172.199 508.632 183.848 495.539C197.417 480.222 209.185 463.594 220.593 445.134C228.399 432.435 236.084 417.772 243.409 400.752C265.504 349.169 280.154 281.351 319.542 231.994C340.436 205.678 366.855 186.564 395.194 178.97C437.944 167.58 480.333 182.374 527.526 192.193C554.425 197.823 581.444 201.489 606.901 202.274C629.117 202.929 650.371 200.965 670.185 196.645C712.454 187.48 749.68 178.447 791.71 172.424C862.799 162.212 949.139 164.962 1036.08 168.235C1040.88 168.366 1045.69 168.628 1050.49 168.758C1140.19 171.508 1224.49 170.068 1304.35 136.944C1308.43 135.242 1312.51 133.41 1316.59 131.577C1351.06 115.735 1383.12 92.6928 1410.86 62.188C1461.17 6.93902 1501.76 -58.7838 1540.67 -124.637" stroke="#80F0F9" stroke-miterlimit="10"/>
<path d="M-81.0563 631.436C-33.9836 613.631 28.6999 577.758 85.6194 549.086C105.793 538.874 124.526 528.663 140.858 517.665C156.949 506.799 170.759 495.932 183.367 484.149C198.017 470.402 211.227 455.215 223.835 438.065C232.601 426.151 241.127 412.273 249.293 395.908C273.79 346.288 289.161 279.518 327.467 229.768C347.761 203.191 373.219 183.422 400.958 174.519C442.867 161.165 485.377 173.079 532.329 181.981C558.988 187.087 585.767 190.753 610.984 192.062C633.079 193.241 654.094 192.193 673.908 189.313C716.297 183.029 753.883 177.792 795.792 174.781C866.641 169.806 951.781 175.566 1038.12 177.923C1042.92 178.054 1047.61 178.185 1052.41 178.185C1141.27 179.625 1224.73 173.733 1302.66 137.992C1306.63 136.159 1310.59 134.195 1314.55 132.231C1348.18 115.342 1379.4 91.6454 1406.54 61.0097C1455.77 5.6297 1495.88 -59.5694 1534.18 -124.899" stroke="#76F0F9" stroke-miterlimit="10"/>
<path d="M-81.8968 615.988C-36.5053 594.124 24.6171 556.942 81.8969 530.496C102.191 521.069 121.164 511.905 138.096 502.216C154.787 492.659 169.438 483.102 183.007 472.628C198.858 460.452 213.268 446.706 227.198 430.864C236.924 419.736 246.291 406.644 255.177 391.064C282.076 343.408 298.287 277.685 335.393 227.673C355.086 200.834 379.583 180.28 406.722 170.068C447.671 154.75 490.42 163.914 537.253 171.77C563.671 176.221 590.21 180.018 615.187 181.982C637.042 183.684 658.057 183.684 677.75 182.113C720.26 178.709 758.206 177.53 800.115 177.268C870.844 176.876 954.663 186.302 1040.28 187.742C1044.97 187.873 1049.77 187.873 1054.45 187.873C1142.59 188.004 1225.21 177.661 1301.1 139.301C1304.95 137.337 1308.91 135.243 1312.75 133.148C1345.41 115.211 1375.79 90.86 1402.45 60.2243C1450.73 4.7134 1490.11 -59.962 1527.94 -124.768" stroke="#6CF0FA" stroke-miterlimit="10"/>
<path d="M-82.7374 600.67C-39.0271 574.616 20.5343 536.387 78.1743 511.905C98.5884 503.133 117.922 495.147 135.334 486.768C152.506 478.52 167.997 470.272 182.527 461.238C199.458 450.633 215.309 438.458 230.56 423.794C241.247 413.582 251.575 401.276 261.181 386.22C290.482 340.528 307.413 275.853 343.318 225.579C362.412 198.609 385.828 177.138 412.486 165.616C452.594 148.335 495.464 154.619 542.056 161.558C568.234 165.485 594.533 169.282 619.39 171.77C641.125 173.995 661.899 174.388 681.593 174.781C724.223 175.566 762.529 176.352 804.438 179.625C874.927 184.993 957.665 197.038 1042.56 197.43C1047.25 197.43 1051.93 197.43 1056.61 197.43C1143.91 196.252 1225.69 181.458 1299.66 140.479C1303.5 138.385 1307.23 136.159 1311.07 133.933C1342.89 114.819 1372.43 89.9436 1398.49 59.3078C1445.68 3.79696 1484.47 -60.4857 1521.82 -124.768" stroke="#61EFFB" stroke-miterlimit="10"/>
<path d="M-83.578 585.352C-41.5488 555.24 16.4514 515.832 74.4517 493.314C94.9859 485.328 114.56 478.389 132.572 471.319C150.344 464.249 166.676 457.572 182.046 449.848C200.059 440.945 217.351 430.209 233.802 416.724C245.45 407.298 256.618 395.777 266.945 381.376C298.647 337.648 316.42 274.02 351.124 223.484C369.616 196.252 392.072 174.126 418.13 161.296C457.397 142.05 500.387 145.585 546.739 151.477C572.677 154.75 598.735 158.546 623.352 161.689C644.847 164.438 665.622 166.402 685.195 167.58C727.945 170.199 766.612 175.828 808.401 181.981C878.77 192.455 960.186 207.642 1044.36 207.119C1048.93 207.119 1053.61 206.988 1058.29 206.857C1144.75 204.238 1225.69 185.124 1297.74 141.527C1301.46 139.301 1305.19 136.944 1308.79 134.588C1339.77 114.426 1368.47 88.896 1393.93 58.2603C1440.04 2.6185 1478.23 -61.1405 1515.09 -124.899" stroke="#57EFFB" stroke-miterlimit="10"/>
<path d="M-84.2985 569.903C-43.9505 535.732 12.4887 495.016 70.8491 474.723C91.5035 467.522 111.317 461.631 129.93 455.87C148.303 450.11 165.355 444.742 181.806 438.327C201.019 430.995 219.632 421.7 237.285 409.524C249.773 400.883 261.902 390.147 273.069 376.531C307.173 334.767 325.666 272.187 359.289 221.258C377.182 193.895 398.677 170.853 424.134 156.714C462.441 135.504 505.671 136.159 551.783 141.134C577.481 143.883 603.299 147.68 627.676 151.477C649.05 154.75 669.585 157.761 689.158 160.249C732.028 165.747 771.055 175.043 812.844 184.338C883.093 200.049 963.188 218.247 1046.77 216.807C1051.33 216.676 1055.89 216.545 1060.58 216.414C1146.2 212.486 1226.41 189.051 1296.42 142.705C1300.02 140.348 1303.62 137.861 1307.23 135.373C1337.37 114.033 1365.23 87.8487 1390.08 57.213C1435.12 1.5712 1472.7 -61.795 1509.09 -125.03" stroke="#4DEFFC" stroke-miterlimit="10"/>
<path d="M-85.1391 554.585C-46.4722 516.356 8.40582 474.461 67.1266 456.132C87.901 449.586 108.075 444.873 127.168 440.421C146.021 435.97 164.034 431.911 181.326 426.936C201.62 421.176 221.554 413.451 240.527 402.585C253.976 394.73 266.945 384.91 278.954 371.818C315.459 332.018 334.792 270.485 367.095 219.294C384.387 191.67 404.921 167.842 429.778 152.393C467.244 129.22 510.594 127.125 556.466 131.053C581.924 133.279 607.502 137.075 631.638 141.396C652.773 145.193 673.187 149.12 692.761 153.048C735.751 161.558 775.018 174.388 816.807 186.826C886.815 207.642 965.83 228.983 1048.69 226.626C1053.25 226.495 1057.81 226.364 1062.38 225.971C1147.28 220.734 1226.41 192.717 1294.62 143.883C1298.1 141.396 1301.58 138.777 1305.07 136.159C1334.37 113.771 1361.38 86.9323 1385.52 56.2965C1429.59 0.523819 1466.46 -62.3187 1502.36 -125.03" stroke="#42EFFD" stroke-miterlimit="10"/>
<path d="M-85.9797 539.267C-48.994 496.979 4.32297 453.775 63.404 437.541C84.1784 431.78 104.713 428.115 124.406 424.972C143.86 421.83 162.593 419.212 180.845 415.546C202.22 411.357 223.595 405.203 243.769 395.515C258.179 388.576 272.109 379.412 284.718 367.105C323.625 329.399 343.678 268.914 374.9 217.33C391.592 189.575 411.165 164.962 435.422 148.073C472.047 122.805 515.638 118.092 561.149 120.972C586.367 122.543 611.704 126.34 635.601 131.446C656.616 135.897 676.91 140.741 696.363 145.978C739.353 157.499 779.221 173.864 820.889 189.444C890.778 215.367 968.472 239.849 1050.61 236.576C1055.05 236.445 1059.62 236.183 1064.06 235.79C1148.12 229.244 1226.41 196.776 1292.7 145.323C1296.18 142.705 1299.54 139.956 1302.9 137.075C1331.36 113.64 1357.42 86.1467 1381.08 55.5109C1424.07 -0.261782 1460.33 -62.7115 1495.88 -124.899" stroke="#38EFFD" stroke-miterlimit="10"/>
<path d="M-86.7002 523.949C-51.2756 477.603 0.360236 433.221 59.8015 419.081C80.696 414.106 101.47 411.488 121.765 409.524C141.818 407.56 161.392 406.382 180.605 404.025C203.061 401.407 225.757 396.824 247.252 388.314C262.622 382.161 277.393 373.782 290.842 362.13C332.151 326.388 353.045 266.95 382.946 214.974C399.157 186.957 417.53 161.558 441.306 143.491C476.971 116.259 520.801 108.796 566.073 110.629C590.93 111.676 616.027 115.473 639.804 121.103C660.578 126.078 680.752 131.969 700.086 138.515C743.196 153.179 783.424 172.948 824.972 191.67C894.741 222.698 971.234 250.323 1052.65 246.133C1057.09 245.871 1061.54 245.61 1065.98 245.217C1149.2 237.231 1226.77 200.442 1291.02 146.371C1294.38 143.49 1297.62 140.741 1300.86 137.73C1328.48 113.117 1353.7 85.0993 1376.76 54.4636C1418.66 -1.44002 1454.33 -63.3661 1489.39 -125.03" stroke="#2EEEFE" stroke-miterlimit="10"/>
<path d="M-87.5407 508.501C-53.7973 458.096 -3.72257 412.535 56.0789 400.359C77.0935 396.039 98.2281 394.599 119.003 393.944C139.537 393.289 159.951 393.42 180.125 392.504C203.781 391.457 227.798 388.445 250.494 381.114C266.825 375.877 282.436 368.283 296.606 357.155C340.316 323.377 361.931 264.986 390.751 212.748C406.362 184.469 423.774 158.285 446.95 138.908C481.774 109.713 525.725 99.3698 570.756 100.286C595.373 100.81 620.23 104.607 643.767 110.76C664.421 116.259 684.355 123.198 703.688 131.053C746.918 148.727 787.386 172.031 829.055 193.764C898.704 230.03 973.876 260.666 1054.57 255.56C1059.01 255.298 1063.34 254.905 1067.78 254.381C1150.28 245.086 1226.89 203.976 1289.21 147.025C1292.46 144.014 1295.7 141.003 1298.82 137.992C1325.6 112.331 1349.98 83.6592 1372.43 53.0235C1413.26 -2.88017 1448.33 -64.4134 1482.91 -125.554" stroke="#23EEFE" stroke-miterlimit="10"/>
<path d="M-88.3813 493.183C-56.3191 438.719 -7.80542 391.849 52.3563 381.899C94.3855 374.83 137.135 380.459 179.645 381.245C222.154 382.03 266.585 377.317 302.49 352.573C373.579 303.477 388.349 193.765 452.714 134.719C505.07 86.5395 581.804 81.4336 647.97 100.81C714.135 120.186 773.216 160.51 833.258 196.514C906.509 240.242 984.683 275.329 1069.82 264.331C1151.48 253.727 1227.25 208.166 1287.65 148.596C1365.59 71.7454 1421.67 -27.4934 1476.54 -125.161" stroke="#19EEFF" stroke-miterlimit="10"/>
</g>
</svg>
